<svg id="Layer_1" data-name="Layer 1" xmlns="http://www.w3.org/2000/svg" viewBox="0 0 723.85 536.39"><defs></defs><title>Logo ESPCI Alumni vect fonts - black</title><path class="fill-logo" d="M306.63,334.72c6.84,0,12.34,1.88,16.53,5.54a18.38,18.38,0,0,1,6.32,14.46,18.72,18.72,0,0,1-6.32,14.55q-6.29,5.64-16.53,5.64H292.87v25.25H282.05V334.81h24.58Zm-13.76,9.4v21.49h13.56c3.77,0,6.73-1,8.77-3a11.54,11.54,0,0,0,0-15.65c-2-2-5-3-8.77-3Z" transform="translate(-87.97 -75.45)"/><path class="fill-logo" d="M402.3,389.27H372l-4.8,10.89H355.69l29.68-66.43H389l29.68,66.43H407.09Zm-15.1-36.14L376,380.26h22.33Z" transform="translate(-87.97 -75.45)"/><path class="fill-logo" d="M492.05,400.16l-19.18-25.24H460.53v25.24H449.72V334.81H474.3c6.84,0,12.34,1.89,16.52,5.55a18.35,18.35,0,0,1,6.33,14.46,19.39,19.39,0,0,1-3.37,11.28,19,19,0,0,1-9.48,7.13l20.19,26.93Zm-31.52-34.55H474.1q5.65,0,8.87-3a11.14,11.14,0,0,0,0-15.55q-3.21-3-8.87-3H460.53Z" transform="translate(-87.97 -75.45)"/><rect class="fill-logo" x="446.6" y="259.36" width="10.81" height="65.35"/><path class="fill-logo" d="M602.7,333.63a25.28,25.28,0,0,1,12.85,3.26,24.56,24.56,0,0,1,8.88,8.42L616.88,351c-3.57-5.24-8.26-7.92-14.07-7.92a12.27,12.27,0,0,0-7.25,2.08,6.93,6.93,0,0,0-2.95,5.94,6.27,6.27,0,0,0,2.14,5.15,31.77,31.77,0,0,0,7.24,4.16l7.55,3.37c5.4,2.37,9.48,5.15,12.13,8a15.12,15.12,0,0,1,4,10.69,16.72,16.72,0,0,1-6.42,13.66c-4.29,3.47-9.69,5.15-16.22,5.15a29.81,29.81,0,0,1-14.89-3.76,27.13,27.13,0,0,1-10.4-10.4l7.65-5.64q7.49,10.4,17.74,10.4a13.41,13.41,0,0,0,8.47-2.48,8,8,0,0,0,3.26-6.63,6.58,6.58,0,0,0-2.24-5.35A33.71,33.71,0,0,0,605,373l-7.45-3.36c-5-2.28-8.87-4.66-11.62-7.53a14.77,14.77,0,0,1-4.08-10.69,15.58,15.58,0,0,1,6.12-12.77A23.29,23.29,0,0,1,603,333.73Z" transform="translate(-87.97 -75.45)"/><path class="fill-logo" d="M88.14,606.49c0-.92.45-3.25,1.56-3.25,6.91,0,16.27-1.39,20.72-12.54,3.79-10.45,53.25-136.34,53.47-137.27a1.36,1.36,0,0,1,1.56-.93,1.61,1.61,0,0,1,1.78.93l47.9,137.74c3.57,10,11.81,12.07,19.61,12.07.89,0,1.34,2.33,1.34,3.25,0,1.17-.45,3.49-1.34,3.49H177.93c-.89,0-1.34-2.09-1.34-3.49,0-1.16.45-3.25,1.34-3.25,10.47,0,17.6-2.55,14.26-12.54-2.45-7.9-8.47-26-8.47-26h-35.2C130,564.69,127.35,571,124.9,577l-5.34,13.93c-3.12,9.53,3.12,12.31,13.59,12.31,1.11,0,1.56,2.33,1.56,3.25,0,1.17-.45,3.49-1.56,3.49H89.7c-1.11,0-1.56-2.32-1.56-3.49m75.53-49.24c12.92,0,16.49-4.18,13.59-12.54-3.12-9.29-16.26-49.94-17.15-51.79-.67-2.1-2.68-2.1-3.35-.24-.89,2.09-24.5,64.57-24.5,64.57Z" transform="translate(-87.97 -75.45)"/><path class="fill-logo" d="M302.25,502.44c0-.93.44-3.48,1.33-3.48h35.88v74.32c0,25.55,12.47,28.11,20.27,28.11,9.58,0,24.51-5.35,24.51-30.9V519.16c0-6.27-.89-13.47-15.82-13.47-.89,0-1.56-2.09-1.56-3.25s.67-3.48,1.56-3.48h35.64v91c0,6.28.9,13,15.82,13,1.12,0,1.34,2.56,1.34,3.49S421,610,420.11,610H392.93c-4.46,0-8.69-.93-8.69-11.15-6.91,10-18.94,13-29.86,13-13.59,0-35-3.72-35-38.56V519.16c0-6.5-1.11-13.47-15.82-13.47-.89,0-1.33-2.09-1.33-3.25" transform="translate(-87.97 -75.45)"/><path class="fill-logo" d="M437.48,610c-.67,0-1.11-1.86-1.11-3.48,0-1.4.22-3.26,1.11-3.26,15.38,0,15.82-7.43,15.82-13.47V518.93c0-6.5-1.11-13-15.82-13-.67,0-1.11-2.09-1.11-3.48,0-1.63.22-3.48,1.11-3.48h26.29c5.35,0,7.58,1.85,8.47,7.89.22,1.4,1.34,1.86,2.23.7,5.34-6.27,12.47-10.69,22.94-10.69,22.95,0,29.41,8.6,32.75,14.4.9,1.17,2.46,1.63,3.57,0,3.56-5.8,10.92-14.4,25.4-14.4,17.82,0,37.2,4.65,37.2,35.31v57.6c0,6.74,1.34,13.47,14.93,13.47.89,0,1.34,2.33,1.34,3.26,0,1.16-.45,3.48-1.34,3.48h-49c-.89,0-1.34-1.86-1.34-3.48,0-1.4.45-3.26,1.34-3.26,12.7,0,14-6.5,14-13.47V535c0-25.09-10.69-27.18-19.16-27.18-14.7,0-19.38,10.45-23,16.49a35.12,35.12,0,0,1,.67,7.9v57.6c0,7,.89,13.47,14,13.47.89,0,1.34,2.33,1.34,3.26s-.45,3.48-1.34,3.48H500.53c-.89,0-1.33-2.09-1.33-3.48,0-1.17.44-3.26,1.33-3.26,13.37,0,14.26-6.73,14.26-13.47V535c0-25.79-11.36-27.18-19.38-27.18-14.26,0-19.16,10-23,17.19v64.8c0,7,1.12,13.47,14.26,13.47.67,0,1.11,1.86,1.11,3.26s-.44,3.48-1.11,3.48Z" transform="translate(-87.97 -75.45)"/><path class="fill-logo" d="M629.31,610c-.89,0-1.34-2.09-1.34-3.48s.45-3.49,1.34-3.49c14.7,0,15.82-6.5,15.82-13.24V518.93c0-7.43-2-13-15.82-13-.89,0-1.34-2.09-1.34-3.48,0-1.86.45-3.48,1.34-3.48h26.07c4.67,0,7.79,1.39,8.46,7.89.22,1.63,1.34,2.09,2.45.93,4.24-4.88,10.47-10.92,23-10.92,15.6,0,37.43,3.72,37.43,35.31v57.6c0,6.74,1.11,13.24,14.26,13.24,1.11,0,1.33,2.56,1.33,3.49S742,610,740.93,610H692.58c-.67,0-1.11-2.09-1.11-3.48,0-1.17.22-3.49,1.11-3.49,12.92,0,14-6.27,14-13.24V535c0-25.79-11.36-27.18-19.16-27.18-14.71,0-19.61,10.22-23.4,17v65c0,6.74.9,13.24,14.26,13.24,1.12,0,1.34,2.56,1.34,3.49,0,.69-.45,3.48-1.34,3.48Z" transform="translate(-87.97 -75.45)"/><path class="fill-logo" d="M758.75,610c-.66,0-1.33-2.32-1.33-3.72,0-1.16.44-3.25,1.33-3.25,14.49,0,15.38-7,15.38-13.24V518.93c0-6.27-.45-13.24-15.82-13.24-.67,0-1.12-2.32-1.12-3.25,0-1.4.23-3.49,1.12-3.49H794v90.82c0,6.74.89,13.24,15.81,13.24,1.12,0,1.34,2.79,1.34,3.25,0,.93-.22,3.72-1.34,3.72Zm12-144.94c0-11.61,8.25-12.54,12.93-12.54S796,453.89,796,465.27c0,11.15-8,12.55-12.48,12.55s-12.7-1.16-12.7-12.78" transform="translate(-87.97 -75.45)"/><path class="fill-logo" d="M112.78,231.9V100.43c0-11-5.8-15-23-15-1.38,0-1.66-2.63-1.66-3.68,0-1.58.55-3.94,1.66-3.94H214c1.39,0,2.49.79,2.49,1.84l4.7,33.13c0,1-2.76,1.57-4.14,1.57s-3.88-.52-4.15-1.57c-5-21-10.79-26.82-21.85-26.82H151.23c-8.3,0-12.17,3.94-12.17,15.25v57.32H180c11.07,0,16.6-4.47,16.6-18.93,0-1.05,2.49-1.58,4.15-1.58s4.15.53,4.15,1.58v46.27c0,1.06-2.49,1.58-4.15,1.58s-4.15-.52-4.15-1.58c0-15-5.53-18.93-16.6-18.93H155.65c-11.34,0-16.59,3.42-16.59,20.51v43.65c0,11,3.87,15.25,11.89,15.25h42.6c11.61,0,16.59-7.62,21.57-26.56.28-1.57,3.32-1.57,4.15-1.57,1.1,0,4.42.26,4.42,1.57L219,252.67a2.47,2.47,0,0,1-2.76,2.1H89.83c-1.11,0-1.66-2.36-1.66-3.94s.55-3.94,1.66-3.94c17.7,0,23-4.47,23-15" transform="translate(-87.97 -75.45)"/><path class="fill-logo" d="M255.78,236.89V210.34c0-1.05,3-1.32,4.14-1.32,1.39,0,3.88.27,3.88,1.32,0,23.93,24.34,39.18,51.72,39.18,14.1,0,39-4.74,39-34.45,0-15-14.93-26.82-45.63-42.07-30.42-15-49.23-26.56-49.23-52.85,0-41.81,36.78-44.44,58.63-44.44,22.68,0,50.62,7.1,50.62,21.83v17.88c0,1-3,1.57-4.15,1.57s-3.87-.52-3.87-1.57c0-13.68-16.32-31.29-41.49-31.29-11.06,0-37.34,3.68-37.34,30.23,0,15.52,18,27.35,44.25,39.71,26.28,12.62,51.17,31.55,51.17,57.85,0,40.75-34.57,46-61.4,46-22.13,0-60.29-5.79-60.29-21" transform="translate(-87.97 -75.45)"/><path class="fill-logo" d="M424.21,231.9V100.69c0-8.41-1.1-15-22.95-15-.83,0-1.66-2.36-1.66-3.94,0-1.84.55-3.94,1.66-3.94h82.42c53.38,0,60,29.71,60,48.38s-6.37,48.64-58.64,48.64H473.44c-22.12,0-22.95,6.84-22.95,15v41.81c0,8.67,1.1,15.25,22.95,15.25,1.39,0,1.66,3.15,1.66,3.94,0,1-.27,3.94-1.66,3.94H401.26c-1.11,0-1.66-2.1-1.66-3.94s.55-3.94,1.66-3.94c21.85,0,22.95-6.31,22.95-15m50.34-65.47c39.27,0,42.87-23.93,42.87-40.23,0-17.36-3.32-40-41.49-40h-13c-11.06,0-12.44,7.63-12.44,15v65.21Z" transform="translate(-87.97 -75.45)"/><path class="fill-logo" d="M569.14,166.69c0-84.4,48.12-91.24,79.1-91.24,31.53,0,58.36,7.89,58.36,20.51V123c0,1.32-3,1.58-4.15,1.58-.83,0-3.87-.53-3.87-1.58,0-31.29-31-39.18-50.34-39.18-18.81,0-50.89,4-50.89,82.83,0,65.21,28.21,78.36,50.89,78.36s46.47-5,52-37.6c0-.79,4.15-1.06,5.53-1.06s5.81.27,5.53,1.06c-4.42,38.65-31,50.22-63.06,50.22-31.53,0-79.1-7.1-79.1-91" transform="translate(-87.97 -75.45)"/><path class="fill-logo" d="M761.08,231.9V100.43c0-7.63-1.93-14.73-23-14.73-1.39,0-1.66-2.62-1.66-3.94,0-1.58.27-3.94,1.66-3.94h72.18c1.11,0,1.39,2.36,1.39,3.94,0,1-.28,3.94-1.39,3.94-19.08,0-23.23,5.26-23.23,14.73V231.9c0,7.36,1.39,15.25,23.23,15.25,1.39,0,1.39,2.63,1.39,3.68s-.28,3.94-1.39,3.94H738.13c-1.11,0-1.66-2.36-1.66-3.94s.27-3.68,1.66-3.68c19.64,0,23-5.79,23-15.25" transform="translate(-87.97 -75.45)"/><path class="fill-logo" d="M251.18,610c-.89,0-1.33-1.86-1.33-3.48,0-1.4.44-3.49,1.33-3.49,14.26,0,15.37-6.73,15.37-13.24V473.87c0-6.27-.66-13.24-15.81-13.24-.89,0-1.34-2.32-1.34-3.48,0-1.4.45-3.49,1.34-3.49h35.42V589.77c0,6,.67,13.24,15.6,13.24.66,0,1.11,2.32,1.11,3.49,0,1.39-.22,3.48-1.11,3.48Z" transform="translate(-87.97 -75.45)"/><path class="fill-logo" d="M671.57,344.3c-1.62,0-2.27-1.51-2.27-3.23s.33-3.23,2.27-3.23H809.88c1.29,0,1.94,1.5,1.94,3.23s-.33,3.23-1.94,3.23Z" transform="translate(-87.97 -75.45)"/><path class="fill-logo" d="M671.57,369.16c-1.62,0-2.27-1.51-2.27-3.23s.33-3.23,2.27-3.23H809.88c1.29,0,1.94,1.51,1.94,3.23s-.33,3.23-1.94,3.23Z" transform="translate(-87.97 -75.45)"/><path class="fill-logo" d="M671.57,394.25c-1.62,0-2.27-1.51-2.27-3.23s.33-3.23,2.27-3.23H809.88c1.29,0,1.94,1.51,1.94,3.23s-.33,3.23-1.94,3.23Z" transform="translate(-87.97 -75.45)"/><path class="fill-logo" d="M90.24,344.3c-1.62,0-2.27-1.51-2.27-3.23s.33-3.23,2.27-3.23H228.55c1.29,0,1.94,1.5,1.94,3.23s-.32,3.23-1.94,3.23Z" transform="translate(-87.97 -75.45)"/><path class="fill-logo" d="M90.24,369.16c-1.62,0-2.27-1.51-2.27-3.23s.33-3.23,2.27-3.23H228.55c1.29,0,1.94,1.51,1.94,3.23s-.32,3.23-1.94,3.23Z" transform="translate(-87.97 -75.45)"/><path class="fill-logo" d="M90.24,394.25c-1.62,0-2.27-1.51-2.27-3.23s.33-3.23,2.27-3.23H228.55c1.29,0,1.94,1.51,1.94,3.23s-.32,3.23-1.94,3.23Z" transform="translate(-87.97 -75.45)"/></svg>





<svg id="Layer_1" data-name="Layer 1" xmlns="http://www.w3.org/2000/svg" viewBox="0 0 301.43 56.53"><defs><style>.fill-logo{fill:#010101;}</style></defs><title>Untitled-2</title><path class="fill-logo" d="M142.84,61.32v2.79a.47.47,0,0,1-.48.48h-.52a.47.47,0,0,1-.48-.48v-.63a1.93,1.93,0,0,0-1.94-1.93h-3.75A2.46,2.46,0,0,0,133.21,64v8.4A1.76,1.76,0,0,0,135,74.19h6.62c1.5,0,2.48-1.73,3-4.13a.5.5,0,0,1,.47-.38h.46a.48.48,0,0,1,.48.56l-.79,5a.48.48,0,0,1-.48.41H125.05a.48.48,0,0,1-.48-.48V74.9a.49.49,0,0,1,.48-.48h.9a2.55,2.55,0,0,0,2.55-2.56V51.1A2.56,2.56,0,0,0,126,48.54h-.9a.48.48,0,0,1-.48-.48v-.31a.48.48,0,0,1,.48-.48h19.38a.48.48,0,0,1,.48.41l.79,5a.47.47,0,0,1-.47.55h-.46a.48.48,0,0,1-.47-.37c-.57-2.41-1.55-4.14-3.06-4.14H135a1.76,1.76,0,0,0-1.76,1.77v9.6h6.21a1.93,1.93,0,0,0,1.94-1.93v-.63a.47.47,0,0,1,.48-.48h.52a.47.47,0,0,1,.48.48v3.74Z" transform="translate(-124.57 -33.37)"/><path class="fill-logo" d="M151.31,68.1a.55.55,0,0,0-.55.55v3.86a1.86,1.86,0,0,0,.87,1.6,17.65,17.65,0,0,0,8.32,2.2c4.17,0,10.18-1.06,10.18-7.3,0-5.07-4.1-7.73-6.19-8.87-1.29-.71-3.44-1.8-4.62-2.45s-3.8-2.21-3.8-4.93a4.65,4.65,0,0,1,4.93-4.52c3.22,0,6.55,2,7,5a.54.54,0,0,0,.54.49h.35a.54.54,0,0,0,.55-.55V50.68A2.23,2.23,0,0,0,168,49a11.91,11.91,0,0,0-7.5-2.25c-4.68,0-9.2,1.61-9.2,6.87S155.44,61,157.44,62s3.06,1.51,4.65,2.46,3.7,2.6,3.7,5.24-1.85,5-5.7,5-7.68-2.24-8-6.1a.54.54,0,0,0-.54-.5Z" transform="translate(-124.57 -33.37)"/><path class="fill-logo" d="M226.18,75.61a.37.37,0,0,1-.37-.37v-.62a.36.36,0,0,1,.37-.36h.92a2.5,2.5,0,0,0,2.49-2.49V51.13a2.49,2.49,0,0,0-2.49-2.49h-.92a.37.37,0,0,1-.37-.37v-.61a.36.36,0,0,1,.37-.37h11.41a.36.36,0,0,1,.37.37v.61a.37.37,0,0,1-.37.37h-.92a2.49,2.49,0,0,0-2.49,2.49V71.77a2.5,2.5,0,0,0,2.49,2.49h.92a.36.36,0,0,1,.37.36v.62a.37.37,0,0,1-.37.37Z" transform="translate(-124.57 -33.37)"/><path class="fill-logo" d="M185.17,61.45h-3.41V51.13a2.48,2.48,0,0,1,2.49-2.49h.92c4,0,6.17,2.08,6.17,6.4,0,4.76-2.92,6.41-6.17,6.41m2-14.16H173.75a.36.36,0,0,0-.36.37v.61a.37.37,0,0,0,.36.37h.93a2.48,2.48,0,0,1,2.48,2.49V71.77a2.49,2.49,0,0,1-2.48,2.49h-.93a.36.36,0,0,0-.36.36v.62a.37.37,0,0,0,.36.37h11.42a.38.38,0,0,0,.37-.37v-.62a.37.37,0,0,0-.37-.36h-.92a2.49,2.49,0,0,1-2.49-2.49V65.33a2.39,2.39,0,0,1,2.4-2.39h3.14c6.34,0,8.73-3.83,8.73-8.15s-2.59-7.5-8.86-7.5" transform="translate(-124.57 -33.37)"/><path class="fill-logo" d="M221,67.82h.57a.51.51,0,0,1,.5.58c-.55,4-3.36,7.74-9.93,7.74-6.89,0-12.44-3.36-12.44-14.28S204,46.71,213.1,46.71c5.72,0,8.32,2.56,8.32,3.79v3.92a.58.58,0,0,1-.58.58h-.26a.58.58,0,0,1-.57-.54,6.66,6.66,0,0,0-6.94-6.19c-3.91,0-7.73.35-8.22,11.94S209.6,74,212,74c3.16,0,7.32-.59,8.53-5.74a.5.5,0,0,1,.49-.4" transform="translate(-124.57 -33.37)"/><path class="fill-logo" d="M407.18,68.1a.55.55,0,0,0-.54.55v3.86a1.85,1.85,0,0,0,.86,1.6,17.75,17.75,0,0,0,8.33,2.2C420,76.31,426,75.25,426,69c0-5.07-4.09-7.73-6.18-8.87-1.29-.71-3.45-1.8-4.63-2.45s-3.8-2.21-3.8-4.93a4.66,4.66,0,0,1,4.93-4.52c3.23,0,6.56,2,7,5a.55.55,0,0,0,.54.49h.36a.54.54,0,0,0,.54-.55V50.68a2.25,2.25,0,0,0-.89-1.72,12,12,0,0,0-7.51-2.25c-4.67,0-9.2,1.61-9.2,6.87s4.19,7.38,6.2,8.41,3.05,1.51,4.65,2.46,3.7,2.6,3.7,5.24-1.85,5-5.71,5c-3.69,0-7.67-2.24-8-6.1a.55.55,0,0,0-.55-.5Z" transform="translate(-124.57 -33.37)"/><path class="fill-logo" d="M391.2,75.67a.37.37,0,0,1-.37-.37v-.61a.38.38,0,0,1,.37-.37h.92a2.48,2.48,0,0,0,2.49-2.49V51.19a2.49,2.49,0,0,0-2.49-2.49h-.92a.37.37,0,0,1-.37-.37v-.61a.38.38,0,0,1,.37-.37h11.42a.37.37,0,0,1,.36.37v.61a.36.36,0,0,1-.36.37h-.92a2.49,2.49,0,0,0-2.49,2.49V71.83a2.48,2.48,0,0,0,2.49,2.49h.92a.37.37,0,0,1,.36.37v.61a.36.36,0,0,1-.36.37Z" transform="translate(-124.57 -33.37)"/><path class="fill-logo" d="M323.67,61.51h-3.41V51.19a2.49,2.49,0,0,1,2.49-2.49h.92c4,0,6.17,2.08,6.17,6.41,0,4.75-2.93,6.4-6.17,6.4m2-14.16H312.25a.38.38,0,0,0-.37.37v.61a.37.37,0,0,0,.37.37h.92a2.49,2.49,0,0,1,2.49,2.49V71.83a2.48,2.48,0,0,1-2.49,2.49h-.92a.38.38,0,0,0-.37.37v.61a.37.37,0,0,0,.37.37h11.42a.36.36,0,0,0,.36-.37v-.61a.37.37,0,0,0-.36-.37h-.92a2.48,2.48,0,0,1-2.49-2.49V65.4a2.39,2.39,0,0,1,2.39-2.4h3.14c6.35,0,8.74-3.83,8.74-8.14s-2.59-7.51-8.86-7.51" transform="translate(-124.57 -33.37)"/><path class="fill-logo" d="M374.84,61.51h-3.41V51.19a2.5,2.5,0,0,1,2.49-2.49h.92c4,0,6.18,2.08,6.18,6.41,0,4.75-2.93,6.4-6.18,6.4m2.48,4.54c.63,1.4,2.87,6.5,3.91,8.65a1.7,1.7,0,0,0,1.53,1h5.86a.37.37,0,0,0,.37-.37v-.61a.37.37,0,0,0-.37-.37h-.92a3,3,0,0,1-2.77-1.83c-.74-1.74-1.79-4.2-2.11-5-.43-1-1.5-3.79-3.49-4.72,4.59-.84,6.38-4.21,6.38-7.95,0-4.31-2.6-7.5-8.87-7.5H363.43a.37.37,0,0,0-.37.37v.61a.36.36,0,0,0,.37.37h.92a2.5,2.5,0,0,1,2.49,2.49V71.83a2.49,2.49,0,0,1-2.49,2.49h-.92a.36.36,0,0,0-.37.37v.61a.36.36,0,0,0,.37.37h11.41a.36.36,0,0,0,.37-.37v-.61a.36.36,0,0,0-.37-.37h-.92a2.49,2.49,0,0,1-2.49-2.49V63h1.69c2.3,0,3.48,1.46,4.2,3" transform="translate(-124.57 -33.37)"/><path class="fill-logo" d="M347.62,66.4h-5a3,3,0,0,0-1.84.52l4.67-11.6a.35.35,0,0,1,.65,0l3.06,8.94a1.61,1.61,0,0,1-1.53,2.13m12.86,7.92h-.33A3.33,3.33,0,0,1,357,72.16l-9.41-25a.29.29,0,0,0-.54,0L336.67,72.32a3.24,3.24,0,0,1-3,2H333a.38.38,0,0,0-.37.37v.61a.37.37,0,0,0,.37.37h8.18a.37.37,0,0,0,.37-.37v-.61a.38.38,0,0,0-.37-.37h-1.33a1.37,1.37,0,0,1-1.28-1.88l1-2.6a3.31,3.31,0,0,1,3.08-2.09h5.76a2.58,2.58,0,0,1,2.44,1.75l1,2.83a1.5,1.5,0,0,1-1.42,2h-1.33a.37.37,0,0,0-.37.37v.61a.36.36,0,0,0,.37.37h11.34a.37.37,0,0,0,.37-.37v-.61a.38.38,0,0,0-.37-.37" transform="translate(-124.57 -33.37)"/><path class="fill-logo" d="M268.73,71.66v.71h.43a.36.36,0,1,0,0-.71Zm1.32.35a.82.82,0,0,1-.89.81h-.43v.87h-.5V71.22h.93a.8.8,0,0,1,.89.79" transform="translate(-124.57 -33.37)"/><path class="fill-logo" d="M272,72.12l-.32.83h.65Zm.51,1.25h-1l-.14.32h-.54l1.1-2.52h.17l1.1,2.52h-.54Z" transform="translate(-124.57 -33.37)"/><path class="fill-logo" d="M275,72.37h.42a.36.36,0,1,0,0-.71H275Zm1,1.32-.64-.87H275v.87h-.5V71.22h.92a.8.8,0,0,1,.9.79.75.75,0,0,1-.44.7l.7,1Z" transform="translate(-124.57 -33.37)"/><rect class="fill-logo" x="153.27" y="37.85" width="0.51" height="2.47"/><path class="fill-logo" d="M281.44,71.64l-.34.27a.56.56,0,0,0-.48-.29c-.16,0-.3.08-.3.24s.11.2.29.29l.28.12c.39.17.61.37.61.72a.78.78,0,0,1-.87.74,1,1,0,0,1-.95-.54l.34-.27a.74.74,0,0,0,.61.36c.22,0,.35-.1.35-.27s-.12-.22-.31-.31l-.27-.12c-.35-.16-.6-.36-.6-.71a.74.74,0,0,1,.82-.7.89.89,0,0,1,.82.47" transform="translate(-124.57 -33.37)"/><path class="fill-logo" d="M268.25,78.47a1.49,1.49,0,0,0-.11-1.43A4.81,4.81,0,0,0,267,75.63,3.84,3.84,0,0,0,268,78.21l.25.26a2.09,2.09,0,0,1-1.32.36,4.47,4.47,0,0,1-1.63-.23,2.75,2.75,0,0,1,2.64-.31Z" transform="translate(-124.57 -33.37)"/><path class="fill-logo" d="M266.12,77.1a2,2,0,0,0-.16-1.35c-.18-.48-.28-.91-.42-1.22a1.46,1.46,0,0,0-.25.48,1.49,1.49,0,0,0-.09.63,1.69,1.69,0,0,0,.64,1.24l.28.22a1.49,1.49,0,0,1-1.36.45,3.24,3.24,0,0,1-1.94-1,5,5,0,0,1,.66,0c.25,0,.5.07.77.09a6.58,6.58,0,0,1,1.53.33Z" transform="translate(-124.57 -33.37)"/><path class="fill-logo" d="M264.18,75.53a1.43,1.43,0,0,0,.32-.55,3.37,3.37,0,0,0,.1-.34c0-.12.06-.25.08-.37s0-.25.05-.37,0-.27,0-.4,0-.25,0-.37,0-.25,0-.37a2.43,2.43,0,0,0-.72,1,1.89,1.89,0,0,0,0,1.42l.15.33a.93.93,0,0,1-.63.08,1.64,1.64,0,0,1-.4-.12,2.65,2.65,0,0,1-.39-.23c-.13-.09-.27-.2-.4-.31a4.17,4.17,0,0,1-.34-.38c-.1-.13-.21-.27-.3-.41s-.15-.28-.22-.42a4.28,4.28,0,0,1,1.25.54,5.6,5.6,0,0,1,1.19,1Z" transform="translate(-124.57 -33.37)"/><path class="fill-logo" d="M262.76,71.77a1.75,1.75,0,0,0,.17-1.39,4.76,4.76,0,0,0-.6-1.63,3.21,3.21,0,0,0-.22,1.29,2.68,2.68,0,0,0,.44,1.43l.1.15.11.15" transform="translate(-124.57 -33.37)"/><path class="fill-logo" d="M263.14,73.24l-.16-.33a3.24,3.24,0,0,0-.92-1.19,3.46,3.46,0,0,0-1.13-.68,4.34,4.34,0,0,0,.36.84,4.27,4.27,0,0,0,.57.74,1.56,1.56,0,0,0,1.28.62l-.05-.36a2.48,2.48,0,0,1,.32-1.42,3,3,0,0,1,.86-.95,3.94,3.94,0,0,1-.09.81,4.63,4.63,0,0,1-.22.81,1.9,1.9,0,0,1-.82,1.11" transform="translate(-124.57 -33.37)"/><path class="fill-logo" d="M281.35,78.48a2.13,2.13,0,0,0,1.32.36,4.47,4.47,0,0,0,1.63-.25,2.74,2.74,0,0,0-2.63-.29l-.32.18a1.47,1.47,0,0,1,.11-1.43,4.55,4.55,0,0,1,1.18-1.42,3.83,3.83,0,0,1-1,2.59Z" transform="translate(-124.57 -33.37)"/><path class="fill-logo" d="M283.48,77.12a1.48,1.48,0,0,0,1.37.43,3.26,3.26,0,0,0,1.94-1,3.91,3.91,0,0,0-.67,0l-.77.09a7.28,7.28,0,0,0-1.53.34l-.34.13a2,2,0,0,1,.16-1.36c.17-.48.27-.91.41-1.23a1.73,1.73,0,0,1,.35,1.12,1.71,1.71,0,0,1-.64,1.24Z" transform="translate(-124.57 -33.37)"/><path class="fill-logo" d="M285.43,75.53a.87.87,0,0,0,.63.08,1.64,1.64,0,0,0,.4-.12,2.65,2.65,0,0,0,.39-.23,3.66,3.66,0,0,0,.39-.32,4,4,0,0,0,.34-.37q.17-.21.3-.42c.08-.14.15-.28.22-.42a3.85,3.85,0,0,0-1.24.55,5.36,5.36,0,0,0-1.19,1l-.24.27a1.33,1.33,0,0,1-.33-.54,1.89,1.89,0,0,1-.09-.34l-.09-.37c0-.13,0-.25-.05-.38s0-.26,0-.39a2.28,2.28,0,0,1,0-.37,2.17,2.17,0,0,1,0-.37,2.35,2.35,0,0,1,.71,1,1.86,1.86,0,0,1,0,1.43Z" transform="translate(-124.57 -33.37)"/><path class="fill-logo" d="M286.83,71.77a1.67,1.67,0,0,0,.62-1.28,4.19,4.19,0,0,0-.19-1.74,3.19,3.19,0,0,0-.51,1.19,3.09,3.09,0,0,0,0,1.48s0,.09.05.17l0,.18" transform="translate(-124.57 -33.37)"/><path class="fill-logo" d="M286.48,73.25l0-.36a2.47,2.47,0,0,0-.33-1.42,2.8,2.8,0,0,0-.87-1,4,4,0,0,0,.1.81,4.66,4.66,0,0,0,.23.81,1.9,1.9,0,0,0,.82,1.11l.16-.33a3.25,3.25,0,0,1,.92-1.2,3.55,3.55,0,0,1,1.12-.69,3.92,3.92,0,0,1-.92,1.59,1.56,1.56,0,0,1-1.28.63" transform="translate(-124.57 -33.37)"/><path class="fill-logo" d="M271.28,77.73l-.34.11-.06-.12.76-.32h.11v1.93c0,.1.14.11.34.13v.11h-1.16v-.11c.2,0,.35,0,.35-.13Z" transform="translate(-124.57 -33.37)"/><path class="fill-logo" d="M273.55,77.56a.29.29,0,0,0-.28.31c0,.23.18.34.39.44a.57.57,0,0,0,.16-.41c0-.26-.14-.34-.27-.34m0,1.88a.31.31,0,0,0,.31-.34c0-.25-.24-.37-.49-.5a.59.59,0,0,0-.16.41c0,.3.15.43.34.43m0-2c.33,0,.67.17.67.5a.57.57,0,0,1-.42.48c.25.12.51.26.51.59s-.4.63-.79.63-.76-.27-.76-.54a.57.57,0,0,1,.46-.54.65.65,0,0,1-.4-.56c0-.36.36-.56.73-.56" transform="translate(-124.57 -33.37)"/><path class="fill-logo" d="M275.76,77.56a.29.29,0,0,0-.27.31c0,.23.18.34.39.44a.57.57,0,0,0,.16-.41c0-.26-.14-.34-.28-.34m0,1.88a.31.31,0,0,0,.31-.34c0-.25-.24-.37-.49-.5a.59.59,0,0,0-.16.41c0,.3.15.43.34.43m0-2c.33,0,.67.17.67.5a.57.57,0,0,1-.43.48c.26.12.52.26.52.59s-.4.63-.79.63-.76-.27-.76-.54a.57.57,0,0,1,.46-.54A.63.63,0,0,1,275,78c0-.36.36-.56.73-.56" transform="translate(-124.57 -33.37)"/><path class="fill-logo" d="M277.52,77.75c0,.08.09.1.09.19s-.11.13-.19.13-.19,0-.19-.16a.6.6,0,0,1,.66-.51.62.62,0,0,1,.7.62c0,.41-.33.77-1,1.19h1v.36h-1.45V79.4c.5-.4.91-.8.91-1.37,0-.22-.09-.47-.31-.47s-.27.11-.27.19" transform="translate(-124.57 -33.37)"/><path class="fill-logo" d="M293.06,69.59c0,10.16-6.87,12.94-13.15,15a23.25,23.25,0,0,0-5.11,2,23.25,23.25,0,0,0-5.11-2c-6.29-2-13.16-4.81-13.16-15V43.35h36.53ZM255.22,42V69.59c0,11.11,7.78,14.18,14.07,16.21a18.46,18.46,0,0,1,5.09,2.12l.42.34.41-.34a18.55,18.55,0,0,1,5.1-2.12c6.29-2,14.06-5.1,14.06-16.21V42Z" transform="translate(-124.57 -33.37)"/><path class="fill-logo" d="M295.4,70c0,11.47-7.87,14.59-14.89,16.87a22.41,22.41,0,0,0-5.71,2.37,22.51,22.51,0,0,0-5.72-2.37c-7-2.28-14.89-5.4-14.89-16.87V41H295.4Zm.28-31.91h0l.16-.16ZM296,41l0,0V37.82H283V35.05h-5.11V33.37h-6.24v1.68h-5.12v2.77h-12.9l.25.25-.25-.25v3.11l0,0h0V70c0,11.85,8.49,15.18,15.26,17.38,2.47.81,4.61,1.5,5.71,2.4l.17.14.17-.14c1.09-.9,3.23-1.59,5.71-2.4,6.76-2.2,15.25-5.53,15.25-17.38V41Z" transform="translate(-124.57 -33.37)"/><path class="fill-logo" d="M269.37,57.26V50.94A1.61,1.61,0,0,1,271,49.32h.6a8.05,8.05,0,0,1,2.28.3c-1.62,1.51-2.43,4-2.46,7.64Zm5.38-.45c0-.12,0-.23,0-.35a13.16,13.16,0,0,1,1.13-5.63,3.36,3.36,0,0,1,.79,2.27c0,2-.8,3.15-1.93,3.71m10,4.59h-.37a.34.34,0,0,0-.32.26c-.78,3.35-2.67,3.73-4.72,3.73-1.41,0-4.39-1.19-4.63-7.19,3.6-.27,5-2.63,5-5.26a4.34,4.34,0,0,0-2.17-3.67,6.88,6.88,0,0,1,2.54-.3c2.42,0,3.53,1.37,3.7,3.75a.37.37,0,0,0,.37.35h.17a.38.38,0,0,0,.37-.37V50.15c0-.8-.87-2.46-4.6-2.46a11.31,11.31,0,0,0-4.4.75,10.31,10.31,0,0,0-2.83-.38h-8.71a.24.24,0,0,0-.24.24v.4a.24.24,0,0,0,.24.24h.6a1.62,1.62,0,0,1,1.62,1.62V64a1.62,1.62,0,0,1-1.62,1.62h-.6a.24.24,0,0,0-.24.24v.4a.24.24,0,0,0,.24.24h7.42a.23.23,0,0,0,.23-.24v-.4a.23.23,0,0,0-.23-.24H271A1.61,1.61,0,0,1,269.37,64V59.78a1.55,1.55,0,0,1,1.56-1.55h.49c.23,6.53,3.74,8.57,8.06,8.57s5.28-2.4,5.64-5a.33.33,0,0,0-.33-.37" transform="translate(-124.57 -33.37)"/></svg>






<svg id="Calque_1" data-name="Calque 1" xmlns="http://www.w3.org/2000/svg" viewBox="0 0 248.74 145.5"><defs><style>.fill-logo{fill:#010000;}</style></defs><title>BDE</title><path class="fill-logo" d="M46.35,104v1.83h1.09a.92.92,0,1,0,0-1.83Zm3.39.91a2.1,2.1,0,0,1-2.3,2.06H46.35v2.24h-1.3V102.8h2.39a2.08,2.08,0,0,1,2.3,2.06" transform="translate(-7.45 -5.39)"/><path class="fill-logo" d="M54.87,105.13,54,107.26H55.7Zm1.3,3.21h-2.6l-.36.82h-1.4l2.84-6.47h.44l2.83,6.47H56.53Z" transform="translate(-7.45 -5.39)"/><path class="fill-logo" d="M62.51,105.77H63.6a.91.91,0,1,0,0-1.82H62.51Zm2.6,3.39-1.65-2.24h-1v2.24H61.2V102.8h2.4a2.07,2.07,0,0,1,2.29,2.06,2,2,0,0,1-1.12,1.8l1.8,2.5Z" transform="translate(-7.45 -5.39)"/><rect class="fill-logo" x="62.34" y="97.41" width="1.3" height="6.36"/><path class="fill-logo" d="M79.05,103.89l-.88.69a1.42,1.42,0,0,0-1.22-.74c-.42,0-.79.2-.79.62s.28.52.74.73l.73.32c1,.45,1.57.95,1.57,1.86A2,2,0,0,1,77,109.28a2.75,2.75,0,0,1-2.46-1.41l.9-.67a1.87,1.87,0,0,0,1.56.92c.56,0,.91-.26.91-.7s-.31-.56-.81-.79l-.69-.31c-.9-.41-1.54-.93-1.54-1.83a1.89,1.89,0,0,1,2.11-1.8,2.28,2.28,0,0,1,2.1,1.2" transform="translate(-7.45 -5.39)"/><path class="fill-logo" d="M45.11,121.46c.56-.81.44-2.24-.3-3.68a11.66,11.66,0,0,0-3.06-3.62c-.21,1.81,1,4.77,2.72,6.63l.64.67a5.36,5.36,0,0,1-3.4.94,11.05,11.05,0,0,1-4.19-.61c1.53-1,4.47-2.05,6.77-.78Z" transform="translate(-7.45 -5.39)"/><path class="fill-logo" d="M39.63,118c.4-.93,0-2.25-.42-3.48s-.72-2.35-1.09-3.15a4.61,4.61,0,0,0-.65,1.25,4.14,4.14,0,0,0-.22,1.62,4.43,4.43,0,0,0,1.65,3.2l.73.56a3.82,3.82,0,0,1-3.52,1.14,8.35,8.35,0,0,1-5-2.57,11.29,11.29,0,0,1,1.71,0c.64.06,1.28.16,2,.23a17.54,17.54,0,0,1,3.94.84Z" transform="translate(-7.45 -5.39)"/><path class="fill-logo" d="M34.62,113.89a3.4,3.4,0,0,0,.84-1.41c.09-.28.17-.57.24-.86s.15-.64.21-1,.1-.65.12-1a9,9,0,0,0,.1-1,7.69,7.69,0,0,0,0-1c0-.33,0-.65,0-1a6.23,6.23,0,0,0-1.84,2.62,4.88,4.88,0,0,0,0,3.66l.39.84a2.35,2.35,0,0,1-1.63.22,5.09,5.09,0,0,1-1-.31,7,7,0,0,1-1-.59,11.87,11.87,0,0,1-1-.8,11.55,11.55,0,0,1-.87-1,11.7,11.7,0,0,1-.78-1.07,9.27,9.27,0,0,1-.56-1.08,11,11,0,0,1,3.2,1.39A14.33,14.33,0,0,1,34,113.2Z" transform="translate(-7.45 -5.39)"/><path class="fill-logo" d="M31,104.22a4.65,4.65,0,0,0,.44-3.58,12.61,12.61,0,0,0-1.54-4.2,8,8,0,0,0-.58,3.33,7.14,7.14,0,0,0,1.13,3.7s.13.19.27.37l.28.38" transform="translate(-7.45 -5.39)"/><path class="fill-logo" d="M31.94,108l-.39-.85a8.7,8.7,0,0,0-2.39-3.07,8.61,8.61,0,0,0-2.91-1.73,11.72,11.72,0,0,0,.94,2.14,12.06,12.06,0,0,0,1.46,1.93A4,4,0,0,0,31.94,108l-.12-.92a6.37,6.37,0,0,1,.84-3.67A7.43,7.43,0,0,1,34.87,101a10.49,10.49,0,0,1-.24,2.1,10.87,10.87,0,0,1-.57,2.08A4.89,4.89,0,0,1,31.94,108" transform="translate(-7.45 -5.39)"/><path class="fill-logo" d="M78.83,121.49a5.36,5.36,0,0,0,3.4.93,11.24,11.24,0,0,0,4.18-.64c-1.53-1-4.47-2-6.77-.74l-.81.45c-.57-.81-.46-2.24.27-3.68a11.68,11.68,0,0,1,3-3.64c.21,1.81-.93,4.78-2.67,6.64Z" transform="translate(-7.45 -5.39)"/><path class="fill-logo" d="M84.3,118a3.84,3.84,0,0,0,3.53,1.11,8.41,8.41,0,0,0,5-2.61,13.22,13.22,0,0,0-1.72.06c-.64,0-1.28.17-2,.24a18.72,18.72,0,0,0-3.94.86l-.87.34c-.4-.93,0-2.26.41-3.49s.71-2.36,1.07-3.17a4.61,4.61,0,0,1,.65,1.25,4,4,0,0,1,.24,1.63,4.38,4.38,0,0,1-1.64,3.2Z" transform="translate(-7.45 -5.39)"/><path class="fill-logo" d="M89.32,113.92a2.36,2.36,0,0,0,1.63.2,5.16,5.16,0,0,0,1-.32,7.13,7.13,0,0,0,1-.59,10.38,10.38,0,0,0,1-.82c.3-.3.59-.63.87-1s.53-.7.77-1.07a11.14,11.14,0,0,0,.55-1.09A11.13,11.13,0,0,0,93,110.68a13.83,13.83,0,0,0-3,2.54l-.62.7a3.54,3.54,0,0,1-.84-1.41,6.2,6.2,0,0,1-.24-.87c-.08-.31-.16-.64-.22-1s-.1-.65-.13-1-.09-.69-.11-1a22.94,22.94,0,0,1,0-1.91,6.29,6.29,0,0,1,1.85,2.61,4.9,4.9,0,0,1,0,3.67Z" transform="translate(-7.45 -5.39)"/><path class="fill-logo" d="M92.93,104.22c.92-.5,1.39-1.8,1.59-3.29A11.15,11.15,0,0,0,94,96.44a8.26,8.26,0,0,0-1.33,3.08,7.76,7.76,0,0,0,0,3.8s.07.23.12.45.11.45.11.45" transform="translate(-7.45 -5.39)"/><path class="fill-logo" d="M92,108l.11-.93a6.33,6.33,0,0,0-.85-3.66A7.42,7.42,0,0,0,89.07,101a10.53,10.53,0,0,0,.25,2.1,11.72,11.72,0,0,0,.59,2.08A4.91,4.91,0,0,0,92,108l.38-.85a8.74,8.74,0,0,1,2.38-3.09,8.84,8.84,0,0,1,2.89-1.76,11.4,11.4,0,0,1-.92,2.15,12.06,12.06,0,0,1-1.44,1.94A4,4,0,0,1,92,108" transform="translate(-7.45 -5.39)"/><path class="fill-logo" d="M52.9,119.57l-.88.27-.14-.29,1.95-.83h.29v5c0,.28.36.31.88.35v.27H52V124c.52,0,.91-.07.91-.35Z" transform="translate(-7.45 -5.39)"/><path class="fill-logo" d="M58.73,119.13a.75.75,0,0,0-.7.81c0,.57.47.86,1,1.13a1.56,1.56,0,0,0,.4-1.07c0-.68-.36-.87-.71-.87m0,4.84a.79.79,0,0,0,.81-.88c0-.65-.63-1-1.27-1.29a1.6,1.6,0,0,0-.42,1.06c0,.76.39,1.11.88,1.11m.06-5.25c.85,0,1.72.42,1.72,1.29a1.46,1.46,0,0,1-1.09,1.23c.66.32,1.32.68,1.32,1.52,0,1.15-1,1.61-2,1.61-1.3,0-1.95-.68-1.95-1.38a1.47,1.47,0,0,1,1.18-1.38,1.67,1.67,0,0,1-1-1.45c0-.92.93-1.44,1.89-1.44" transform="translate(-7.45 -5.39)"/><path class="fill-logo" d="M64.45,119.13a.76.76,0,0,0-.71.81c0,.57.47.86,1,1.13a1.56,1.56,0,0,0,.4-1.07c0-.68-.36-.87-.7-.87m0,4.84a.8.8,0,0,0,.82-.88c0-.65-.64-1-1.28-1.29a1.59,1.59,0,0,0-.41,1.06c0,.76.39,1.11.87,1.11m.06-5.25c.85,0,1.73.42,1.73,1.29a1.47,1.47,0,0,1-1.1,1.23c.66.32,1.32.68,1.32,1.52,0,1.15-1,1.61-2,1.61-1.3,0-2-.68-2-1.38a1.47,1.47,0,0,1,1.18-1.38,1.68,1.68,0,0,1-1-1.45c0-.92.93-1.44,1.89-1.44" transform="translate(-7.45 -5.39)"/><path class="fill-logo" d="M69,119.62c0,.21.21.26.21.49s-.27.33-.47.33-.49-.12-.49-.41a1.54,1.54,0,0,1,1.69-1.31,1.59,1.59,0,0,1,1.79,1.59c0,1-.84,2-2.48,3.06h2.62v.92H68.11v-.43c1.28-1,2.35-2.07,2.35-3.53,0-.57-.23-1.2-.8-1.2s-.69.28-.69.49" transform="translate(-7.45 -5.39)"/><path class="fill-logo" d="M109,98.6c0,26.16-17.69,33.32-33.86,38.54C69.73,138.88,65,140.4,62,142.4c-3-2-7.77-3.52-13.16-5.26-16.17-5.22-33.86-12.38-33.86-38.54V31.09h94ZM11.58,27.71V98.6c0,28.62,20,36.52,36.19,41.75,5.74,1.85,10.69,3.45,13.12,5.44l1.07.87,1.06-.87c2.43-2,7.39-3.59,13.12-5.44,16.19-5.23,36.2-13.13,36.2-41.75V27.71Z" transform="translate(-7.45 -5.39)"/><path class="fill-logo" d="M115,99.63c0,29.5-20.26,37.55-38.31,43.42-6.21,2-11.61,3.78-14.71,6.09-3.11-2.31-8.51-4.07-14.72-6.09-18-5.87-38.31-13.92-38.31-43.42V25H115Zm.73-82.15h0l.4-.4Zm.75,7.48-.11-.11v-8H83.15V9.72H70V5.39H53.93V9.72H40.76v7.12H7.56l.64.64-.64-.64v8L7.45,25h.11V99.63c0,30.49,21.85,39.06,39.26,44.73,6.37,2.07,11.88,3.87,14.7,6.18l.44.35.43-.35c2.82-2.31,8.33-4.11,14.7-6.18,17.41-5.67,39.26-14.24,39.26-44.73V25Z" transform="translate(-7.45 -5.39)"/><path class="fill-logo" d="M48,66.88V50.6a4.16,4.16,0,0,1,4.16-4.16h1.54a21,21,0,0,1,5.89.78c-4.17,3.89-6.26,10.25-6.35,19.66Zm13.84-1.15c0-.31,0-.6,0-.92.3-7.15,1.37-11.64,2.92-14.48a8.63,8.63,0,0,1,2,5.84c0,5.14-2.06,8.1-5,9.56m25.85,11.8h-1a.84.84,0,0,0-.82.67c-2,8.62-6.88,9.6-12.16,9.6-3.62,0-11.29-3-11.91-18.5,9.26-.7,12.8-6.76,12.8-13.55,0-3.86-2.06-7.18-5.57-9.43a17.62,17.62,0,0,1,6.53-.79c6.23,0,9.08,3.54,9.52,9.67a.94.94,0,0,0,.95.89h.44a1,1,0,0,0,1-1V48.58c0-2.06-2.25-6.34-11.83-6.34A28.81,28.81,0,0,0,64.3,44.19a25.67,25.67,0,0,0-7.27-1H34.6a.61.61,0,0,0-.61.61v1a.61.61,0,0,0,.61.61h1.54a4.16,4.16,0,0,1,4.16,4.16V84.13a4.16,4.16,0,0,1-4.16,4.16H34.6a.61.61,0,0,0-.61.62v1a.61.61,0,0,0,.61.62H53.69a.61.61,0,0,0,.61-.62v-1a.61.61,0,0,0-.61-.62H52.15A4.16,4.16,0,0,1,48,84.13V73.37a4,4,0,0,1,4-4h1.26c.6,16.82,9.64,22.08,20.76,22.08s13.58-6.19,14.51-13a.84.84,0,0,0-.84-1" transform="translate(-7.45 -5.39)"/><path d="M157.51,36.15A5.89,5.89,0,0,1,161.69,42a6.46,6.46,0,0,1-2.16,5,8.06,8.06,0,0,1-5.62,2H143.33V25.24h8.42a7.88,7.88,0,0,1,5.4,1.84,6,6,0,0,1,2.13,4.75,5.63,5.63,0,0,1-1.77,4.28ZM148,29.42v5.43h3.34a3.18,3.18,0,0,0,2.27-.76,2.64,2.64,0,0,0,.83-2,2.4,2.4,0,0,0-.79-1.94,3.36,3.36,0,0,0-2.27-.72ZM156,44a2.76,2.76,0,0,0,.9-2.2,2.73,2.73,0,0,0-.9-2.16,3.62,3.62,0,0,0-2.48-.82H148v6h5.54A3.61,3.61,0,0,0,156,44Z" transform="translate(-7.45 -5.39)"/><path d="M181.49,41.15a8.12,8.12,0,0,1-2.3,6,8,8,0,0,1-5.84,2.27,7.86,7.86,0,0,1-8.24-8.28v-10H170V41.51a3.24,3.24,0,0,0,1,2.48,3.44,3.44,0,0,0,2.45.94,3.32,3.32,0,0,0,2.38-.94,3.28,3.28,0,0,0,1-2.48V31.14h4.86Z" transform="translate(-7.45 -5.39)"/><path d="M195.57,30.89a5.34,5.34,0,0,1,1.62.22v4.28h-1.3a4.94,4.94,0,0,0-3.49,1.19,4.45,4.45,0,0,0-1.3,3.49V49h-4.86V31.14h4.47V33.3a5.85,5.85,0,0,1,4.89-2.37Z" transform="translate(-7.45 -5.39)"/><path d="M216.52,39.1a11.26,11.26,0,0,1-.33,2.66H203.67a4.6,4.6,0,0,0,1.8,2.59,5.39,5.39,0,0,0,3.24.9,8,8,0,0,0,5-1.8l2,3.32a10.91,10.91,0,0,1-7.13,2.66,9.58,9.58,0,0,1-7-2.7,9.43,9.43,0,0,1-.07-13.28,9.07,9.07,0,0,1,6.66-2.7,8.07,8.07,0,0,1,6,2.37A8.16,8.16,0,0,1,216.55,39ZM208,34.74a4,4,0,0,0-2.7,1,5,5,0,0,0-1.59,2.63h8.14a3.44,3.44,0,0,0-1.19-2.63,4.07,4.07,0,0,0-2.7-1Z" transform="translate(-7.45 -5.39)"/><path d="M227.68,30.82a7.83,7.83,0,0,1,5.58,1.94,7.4,7.4,0,0,1,2.05,5.65V49h-4.46V47.27a7.14,7.14,0,0,1-5.44,2.16,6.57,6.57,0,0,1-4.54-1.51,5,5,0,0,1-1.65-3.85,4.55,4.55,0,0,1,1.83-3.82,7.94,7.94,0,0,1,4.94-1.4h4.46v-.8a2.93,2.93,0,0,0-.87-2.26A3.48,3.48,0,0,0,227.1,35a6.67,6.67,0,0,0-4.71,2.45l-2.52-3a9.7,9.7,0,0,1,7.77-3.67Zm-1,15a3.85,3.85,0,0,0,2.66-1,3.27,3.27,0,0,0,1.08-2.55v-.22h-3.82c-1.65,0-2.48.61-2.48,1.8a1.72,1.72,0,0,0,.72,1.44,2.94,2.94,0,0,0,1.84.54Z" transform="translate(-7.45 -5.39)"/><path d="M256.08,41.15a8.08,8.08,0,0,1-2.3,6A8,8,0,0,1,248,49.39,8.09,8.09,0,0,1,242,47.12a8,8,0,0,1-2.31-6v-10h4.86V41.51a3.28,3.28,0,0,0,1,2.48,3.44,3.44,0,0,0,2.45.94,3.32,3.32,0,0,0,2.38-.94,3.28,3.28,0,0,0,1-2.48V31.14h4.86Z" transform="translate(-7.45 -5.39)"/><path d="M160.79,65.24v27h-4.46V90a6.66,6.66,0,0,1-5.73,2.66A8,8,0,0,1,144.41,90a10.44,10.44,0,0,1,0-13.39A8.12,8.12,0,0,1,150.67,74a6.78,6.78,0,0,1,5.3,2.12V65.16ZM151.5,88.35a4.55,4.55,0,0,0,3.17-1.26A4.76,4.76,0,0,0,156,83.41a4.85,4.85,0,0,0-1.33-3.67,4.61,4.61,0,0,0-6.44,0,4.81,4.81,0,0,0-1.33,3.56,5,5,0,0,0,1.29,3.57,4.4,4.4,0,0,0,3.31,1.33Z" transform="translate(-7.45 -5.39)"/><path d="M182.32,82.3A11.26,11.26,0,0,1,182,85H169.47a4.6,4.6,0,0,0,1.8,2.59,5.39,5.39,0,0,0,3.24.9,8,8,0,0,0,5-1.8l2,3.32a10.91,10.91,0,0,1-7.13,2.66,9.59,9.59,0,0,1-7-2.7,9.43,9.43,0,0,1-.07-13.28A9.07,9.07,0,0,1,174,74a8.07,8.07,0,0,1,6,2.37,8.16,8.16,0,0,1,2.34,5.91Zm-8.53-4.36a4,4,0,0,0-2.7,1,5,5,0,0,0-1.59,2.63h8.14a3.44,3.44,0,0,0-1.19-2.63,4,4,0,0,0-2.7-1Z" transform="translate(-7.45 -5.39)"/><path d="M192.15,74.09a8.18,8.18,0,0,1,6.4,2.7l-2.44,3a5.7,5.7,0,0,0-4-1.69c-1.26,0-1.91.43-1.91,1.26a1,1,0,0,0,.43.82,7.53,7.53,0,0,0,1.48.72l1.73.72a11.65,11.65,0,0,1,3.78,2.24A4.25,4.25,0,0,1,198.81,87a5,5,0,0,1-1.95,4.18,7.83,7.83,0,0,1-5,1.51,8.74,8.74,0,0,1-7.37-3.45l2.44-3a6.84,6.84,0,0,0,5,2.42,3.18,3.18,0,0,0,1.62-.4,1.19,1.19,0,0,0,.65-1.08,1.07,1.07,0,0,0-.43-.9,7.16,7.16,0,0,0-1.44-.76l-1.91-.79a10.91,10.91,0,0,1-3.64-2.27,4.47,4.47,0,0,1-1.18-3.24,4.69,4.69,0,0,1,1.83-4,7.6,7.6,0,0,1,4.75-1.41Z" transform="translate(-7.45 -5.39)"/><path d="M159.31,116H148.19v4.82h8.17V125h-8.17v6h11.56v4.39H143.33V111.6h16Zm-1.54-12.53-4.94,5.83h-3.52l2.59-6.7h5.87Z" transform="translate(-7.45 -5.39)"/><path d="M168.5,135.36h-4.86v-27h4.86Z" transform="translate(-7.45 -5.39)"/><path d="M190,125.5a11.26,11.26,0,0,1-.33,2.66H177.14a4.6,4.6,0,0,0,1.8,2.59,5.38,5.38,0,0,0,3.23.9,8,8,0,0,0,5-1.8l2,3.31a10.88,10.88,0,0,1-7.13,2.67,9.56,9.56,0,0,1-7-2.7,9.31,9.31,0,0,1,6.58-16,8.06,8.06,0,0,1,8.39,8.28Zm-10.08-10.69L175,108.15v-.87h5.83l2.62,7.53Zm1.55,6.33a4,4,0,0,0-2.7,1,5,5,0,0,0-1.59,2.63h8.14a3.44,3.44,0,0,0-1.19-2.63,4.07,4.07,0,0,0-2.7-1Z" transform="translate(-7.45 -5.39)"/><path d="M211.08,117.54l-8.82,18.25h-1.62l-8.82-18.25h5.11l4.5,10.12,4.5-10.12Z" transform="translate(-7.45 -5.39)"/><path d="M229.87,125.5a11.24,11.24,0,0,1-.32,2.66H217a4.7,4.7,0,0,0,1.8,2.59,5.43,5.43,0,0,0,3.24.9,8,8,0,0,0,5-1.8l2,3.31a10.88,10.88,0,0,1-7.13,2.67,9.56,9.56,0,0,1-7-2.7,9.3,9.3,0,0,1,6.58-16,8.06,8.06,0,0,1,8.39,8.28Zm-8.53-4.36a4.07,4.07,0,0,0-2.7,1,5.08,5.08,0,0,0-1.58,2.63h8.13a3.43,3.43,0,0,0-1.18-2.63,4.07,4.07,0,0,0-2.7-1Z" transform="translate(-7.45 -5.39)"/><path d="M239.7,117.29a8.19,8.19,0,0,1,6.41,2.7l-2.45,3a5.7,5.7,0,0,0-4-1.69c-1.26,0-1.91.43-1.91,1.26a1,1,0,0,0,.43.82,7.25,7.25,0,0,0,1.48.72l1.72.72a11.65,11.65,0,0,1,3.78,2.24,4.21,4.21,0,0,1,1.19,3.16,5,5,0,0,1-1.94,4.18,7.85,7.85,0,0,1-5,1.51,8.75,8.75,0,0,1-7.38-3.45l2.45-3a6.82,6.82,0,0,0,5,2.42,3.24,3.24,0,0,0,1.62-.4,1.18,1.18,0,0,0,.64-1.08,1,1,0,0,0-.43-.9,6.88,6.88,0,0,0-1.44-.76L238,128a10.75,10.75,0,0,1-3.63-2.27,4.48,4.48,0,0,1-1.19-3.24,4.67,4.67,0,0,1,1.84-4,7.56,7.56,0,0,1,4.75-1.41Z" transform="translate(-7.45 -5.39)"/></svg>