<?xml version="1.0" encoding="utf-8"?>
<!-- Generator: Adobe Illustrator 22.0.1, SVG Export Plug-In . SVG Version: 6.00 Build 0)  -->
<svg version="1.1" id="Calque_1" xmlns="http://www.w3.org/2000/svg" xmlns:xlink="http://www.w3.org/1999/xlink" x="0px" y="0px"
	 viewBox="0 0 793.5 461.7" style="enable-background:new 0 0 793.5 461.7;" xml:space="preserve">
<style type="text/css">
	.st0{fill:none;stroke:#D1A14A;stroke-miterlimit:10;}
</style>
<title>fleurs</title>
<g id="XMLID_1_">
	<path id="XMLID_9_" class="st0" d="M329.7-23.2"/>
	<path id="XMLID_8_" class="st0" d="M315.6-32.9"/>
	<path id="XMLID_7_" class="st0" d="M326.7-37"/>
	<polygon id="XMLID_6_" class="st0" points="318.1,-52.9 318.1,-1.6 344.2,-27.2 	"/>
	<polygon id="XMLID_5_" class="st0" points="318.1,-27.3 265.9,-27.3 292,-1.6 	"/>
	<line id="XMLID_4_" class="st0" x1="344.6" y1="-27.3" x2="396.6" y2="-27.3"/>
	<line id="XMLID_3_" class="st0" x1="317.6" y1="-52.3" x2="396.6" y2="-52.3"/>
	<line id="XMLID_2_" class="st0" x1="265.6" y1="-27.3" x2="238.6" y2="-27.3"/>
</g>
<g id="XMLID_25_">
	<path id="XMLID_33_" class="st0" d="M171.5,2.3"/>
	<path id="XMLID_32_" class="st0" d="M157.4-7.5"/>
	<path id="XMLID_31_" class="st0" d="M168.4-11.5"/>
	<polygon id="XMLID_30_" class="st0" points="160.1,-27.4 160.1,23.9 186.2,-1.7 	"/>
	<polygon id="XMLID_29_" class="st0" points="159.9,-1.3 107.7,-1.3 133.8,24.4 	"/>
	<line id="XMLID_28_" class="st0" x1="185.6" y1="-1.3" x2="238.6" y2="-1.3"/>
	<line id="XMLID_27_" class="st0" x1="159.6" y1="-27.3" x2="238.6" y2="-27.3"/>
	<line id="XMLID_26_" class="st0" x1="107.6" y1="-1.3" x2="80.6" y2="-1.3"/>
</g>
<g id="XMLID_10_">
	<path id="XMLID_24_" class="st0" d="M250.8,28.1"/>
	<path id="XMLID_23_" class="st0" d="M236.7,18.3"/>
	<path id="XMLID_22_" class="st0" d="M247.7,14.3"/>
	<polygon id="XMLID_21_" class="st0" points="239.1,-1.6 239.1,49.7 265.2,24.1 	"/>
	<polygon id="XMLID_20_" class="st0" points="239.2,23.7 187,23.7 213.1,49.4 	"/>
	<line id="XMLID_14_" class="st0" x1="265.6" y1="24.7" x2="317.6" y2="24.7"/>
	<line id="XMLID_12_" class="st0" x1="239.6" y1="-1.3" x2="317.6" y2="-1.3"/>
	<line id="XMLID_11_" class="st0" x1="186.6" y1="23.7" x2="159.6" y2="23.7"/>
</g>
<g id="XMLID_61_">
	<path id="XMLID_69_" class="st0" d="M409,2.6"/>
	<path id="XMLID_68_" class="st0" d="M394.9-7.1"/>
	<path id="XMLID_67_" class="st0" d="M405.9-11.2"/>
	<polygon id="XMLID_66_" class="st0" points="397.1,-27.1 397.1,24.2 423.2,-1.4 	"/>
	<polygon id="XMLID_65_" class="st0" points="397.4,-1.3 345.2,-1.3 371.3,24.4 	"/>
	<line id="XMLID_64_" class="st0" x1="423.6" y1="-1.3" x2="476.6" y2="-1.3"/>
	<line id="XMLID_63_" class="st0" x1="397.6" y1="-27.3" x2="476.6" y2="-27.3"/>
	<line id="XMLID_62_" class="st0" x1="345.6" y1="-1.3" x2="317.6" y2="-1.3"/>
</g>
<g id="XMLID_52_">
	<path id="XMLID_60_" class="st0" d="M488.3,28.4"/>
	<path id="XMLID_59_" class="st0" d="M474.2,18.7"/>
	<path id="XMLID_58_" class="st0" d="M485.2,14.6"/>
	<polygon id="XMLID_57_" class="st0" points="477.1,-1.3 477.1,50 503.2,24.4 	"/>
	<polygon id="XMLID_56_" class="st0" points="476.7,24.7 424.5,24.7 450.6,50.4 	"/>
	<line id="XMLID_55_" class="st0" x1="502.6" y1="24.7" x2="555.6" y2="24.7"/>
	<line id="XMLID_54_" class="st0" x1="476.6" y1="-1.3" x2="555.6" y2="-1.3"/>
	<line id="XMLID_53_" class="st0" x1="424.6" y1="24.7" x2="397.6" y2="24.7"/>
</g>
<g id="XMLID_43_">
	<path id="XMLID_51_" class="st0" d="M330.1,53.9"/>
	<path id="XMLID_50_" class="st0" d="M316,44.1"/>
	<path id="XMLID_49_" class="st0" d="M327,40.1"/>
	<polygon id="XMLID_48_" class="st0" points="318.1,24.2 318.1,75.5 344.2,49.9 	"/>
	<polygon id="XMLID_47_" class="st0" points="318.5,49.7 266.2,49.7 292.3,75.4 	"/>
	<line id="XMLID_46_" class="st0" x1="344.6" y1="49.7" x2="397.6" y2="49.7"/>
	<line id="XMLID_45_" class="st0" x1="318.6" y1="24.7" x2="397.6" y2="24.7"/>
	<line id="XMLID_44_" class="st0" x1="266.6" y1="49.7" x2="239.6" y2="49.7"/>
</g>
<g id="XMLID_34_">
	<path id="XMLID_42_" class="st0" d="M409.3,79.7"/>
	<path id="XMLID_41_" class="st0" d="M395.2,69.9"/>
	<path id="XMLID_40_" class="st0" d="M406.2,65.9"/>
	<polygon id="XMLID_39_" class="st0" points="398.1,50 398.1,101.3 424.2,75.7 	"/>
	<polygon id="XMLID_38_" class="st0" points="397.7,75.7 345.5,75.7 371.6,101.4 	"/>
	<line id="XMLID_37_" class="st0" x1="423.6" y1="75.7" x2="476.6" y2="75.7"/>
	<line id="XMLID_36_" class="st0" x1="397.6" y1="49.7" x2="476.6" y2="49.7"/>
	<line id="XMLID_35_" class="st0" x1="345.6" y1="75.7" x2="318.6" y2="75.7"/>
</g>
<g id="XMLID_161_">
	<path id="XMLID_171_" class="st0" d="M567.5,54"/>
	<path id="XMLID_170_" class="st0" d="M553.4,44.3"/>
	<path id="XMLID_167_" class="st0" d="M564.4,40.2"/>
	<polygon id="XMLID_166_" class="st0" points="556.1,24.4 556.1,75.7 582.2,50 	"/>
	<polygon id="XMLID_165_" class="st0" points="555.9,49.7 503.6,49.7 529.8,75.4 	"/>
	<line id="XMLID_164_" class="st0" x1="581.6" y1="50.7" x2="634.6" y2="50.7"/>
	<line id="XMLID_163_" class="st0" x1="555.6" y1="24.7" x2="634.6" y2="24.7"/>
	<line id="XMLID_162_" class="st0" x1="503.6" y1="49.7" x2="476.6" y2="49.7"/>
</g>
<g id="XMLID_152_">
	<path id="XMLID_160_" class="st0" d="M646.7,79.8"/>
	<path id="XMLID_159_" class="st0" d="M632.6,70.1"/>
	<path id="XMLID_158_" class="st0" d="M643.7,66"/>
	<polygon id="XMLID_157_" class="st0" points="635.1,50.1 635.1,101.4 661.2,75.8 	"/>
	<polygon id="XMLID_156_" class="st0" points="635.1,75.7 582.9,75.7 609,101.4 	"/>
	<line id="XMLID_155_" class="st0" x1="661.6" y1="75.7" x2="713.6" y2="75.7"/>
	<line id="XMLID_154_" class="st0" x1="634.6" y1="50.7" x2="713.6" y2="50.7"/>
	<line id="XMLID_153_" class="st0" x1="582.6" y1="75.7" x2="555.6" y2="75.7"/>
</g>
<g id="XMLID_143_">
	<path id="XMLID_151_" class="st0" d="M488.5,105.3"/>
	<path id="XMLID_150_" class="st0" d="M474.4,95.5"/>
	<path id="XMLID_149_" class="st0" d="M485.4,91.5"/>
	<polygon id="XMLID_148_" class="st0" points="477.1,75.6 477.1,126.9 503.2,101.3 	"/>
	<polygon id="XMLID_147_" class="st0" points="476.9,101.7 424.7,101.7 450.8,127.4 	"/>
	<line id="XMLID_146_" class="st0" x1="502.6" y1="101.7" x2="555.6" y2="101.7"/>
	<line id="XMLID_145_" class="st0" x1="476.6" y1="75.7" x2="555.6" y2="75.7"/>
	<line id="XMLID_144_" class="st0" x1="424.6" y1="101.7" x2="397.6" y2="101.7"/>
</g>
<g id="XMLID_134_">
	<path id="XMLID_142_" class="st0" d="M567.8,131.1"/>
	<path id="XMLID_141_" class="st0" d="M553.7,121.3"/>
	<path id="XMLID_140_" class="st0" d="M564.7,117.3"/>
	<polygon id="XMLID_139_" class="st0" points="556.1,101.4 556.1,152.7 582.2,127.1 	"/>
	<polygon id="XMLID_138_" class="st0" points="556.2,126.7 504,126.7 530.1,152.4 	"/>
	<line id="XMLID_137_" class="st0" x1="582.6" y1="127.7" x2="634.6" y2="127.7"/>
	<line id="XMLID_136_" class="st0" x1="556.6" y1="101.7" x2="634.6" y2="101.7"/>
	<line id="XMLID_135_" class="st0" x1="503.6" y1="126.7" x2="476.6" y2="126.7"/>
</g>
<g id="XMLID_125_">
	<path id="XMLID_133_" class="st0" d="M726,105.6"/>
	<path id="XMLID_132_" class="st0" d="M711.9,95.9"/>
	<path id="XMLID_131_" class="st0" d="M722.9,91.8"/>
	<polygon id="XMLID_130_" class="st0" points="714.1,75.9 714.1,127.2 740.2,101.6 	"/>
	<polygon id="XMLID_129_" class="st0" points="714.4,101.7 662.2,101.7 688.3,127.4 	"/>
	<line id="XMLID_128_" class="st0" x1="740.6" y1="101.7" x2="793.6" y2="101.7"/>
	<line id="XMLID_127_" class="st0" x1="714.6" y1="75.7" x2="793.6" y2="75.7"/>
	<line id="XMLID_126_" class="st0" x1="662.6" y1="101.7" x2="634.6" y2="101.7"/>
</g>
<g id="XMLID_116_">
	<path id="XMLID_124_" class="st0" d="M805.3,131.4"/>
	<path id="XMLID_123_" class="st0" d="M791.2,121.7"/>
	<path id="XMLID_122_" class="st0" d="M802.2,117.6"/>
	<polygon id="XMLID_121_" class="st0" points="794.1,101.7 794.1,153 820.2,127.4 	"/>
	<polygon id="XMLID_120_" class="st0" points="793.7,127.7 741.5,127.7 767.6,153.4 	"/>
	<line id="XMLID_119_" class="st0" x1="819.6" y1="127.7" x2="872.6" y2="127.7"/>
	<line id="XMLID_118_" class="st0" x1="793.6" y1="101.7" x2="872.6" y2="101.7"/>
	<line id="XMLID_117_" class="st0" x1="741.6" y1="127.7" x2="714.6" y2="127.7"/>
</g>
<g id="XMLID_107_">
	<path id="XMLID_115_" class="st0" d="M647.1,156.9"/>
	<path id="XMLID_114_" class="st0" d="M633,147.1"/>
	<path id="XMLID_113_" class="st0" d="M644,143.1"/>
	<polygon id="XMLID_112_" class="st0" points="635.1,127.2 635.1,178.5 661.2,152.9 	"/>
	<polygon id="XMLID_111_" class="st0" points="635.5,152.7 583.2,152.7 609.3,178.4 	"/>
	<line id="XMLID_110_" class="st0" x1="661.6" y1="152.7" x2="714.6" y2="152.7"/>
	<line id="XMLID_109_" class="st0" x1="635.6" y1="127.7" x2="714.6" y2="127.7"/>
	<line id="XMLID_108_" class="st0" x1="583.6" y1="152.7" x2="556.6" y2="152.7"/>
</g>
<g id="XMLID_98_">
	<path id="XMLID_106_" class="st0" d="M726.3,182.7"/>
	<path id="XMLID_105_" class="st0" d="M712.2,172.9"/>
	<path id="XMLID_104_" class="st0" d="M723.2,168.9"/>
	<polygon id="XMLID_103_" class="st0" points="715.1,153 715.1,204.3 741.2,178.7 	"/>
	<polygon id="XMLID_102_" class="st0" points="714.7,178.7 662.5,178.7 688.6,204.4 	"/>
	<line id="XMLID_101_" class="st0" x1="740.6" y1="178.7" x2="793.6" y2="178.7"/>
	<line id="XMLID_100_" class="st0" x1="714.6" y1="152.7" x2="793.6" y2="152.7"/>
	<line id="XMLID_99_" class="st0" x1="662.6" y1="178.7" x2="635.6" y2="178.7"/>
</g>
<g id="XMLID_173_">
	<g id="XMLID_309_">
		<path id="XMLID_317_" class="st0" d="M250.5,105"/>
		<path id="XMLID_316_" class="st0" d="M236.4,95.3"/>
		<path id="XMLID_315_" class="st0" d="M247.4,91.2"/>
		<polygon id="XMLID_314_" class="st0" points="239.1,75.4 239.1,126.7 265.2,101 		"/>
		<polygon id="XMLID_313_" class="st0" points="238.9,100.7 186.6,100.7 212.8,126.4 		"/>
		<line id="XMLID_312_" class="st0" x1="264.6" y1="101.7" x2="317.6" y2="101.7"/>
		<line id="XMLID_311_" class="st0" x1="238.6" y1="75.7" x2="317.6" y2="75.7"/>
		<line id="XMLID_310_" class="st0" x1="186.6" y1="100.7" x2="159.6" y2="100.7"/>
	</g>
	<g id="XMLID_300_">
		<path id="XMLID_308_" class="st0" d="M329.7,130.8"/>
		<path id="XMLID_307_" class="st0" d="M315.6,121.1"/>
		<path id="XMLID_306_" class="st0" d="M326.7,117"/>
		<polygon id="XMLID_305_" class="st0" points="318.1,101.1 318.1,152.4 344.2,126.8 		"/>
		<polygon id="XMLID_304_" class="st0" points="318.1,126.7 265.9,126.7 292,152.4 		"/>
		<line id="XMLID_303_" class="st0" x1="344.6" y1="126.7" x2="396.6" y2="126.7"/>
		<line id="XMLID_302_" class="st0" x1="317.6" y1="101.7" x2="396.6" y2="101.7"/>
		<line id="XMLID_301_" class="st0" x1="265.6" y1="126.7" x2="238.6" y2="126.7"/>
	</g>
	<g id="XMLID_291_">
		<path id="XMLID_299_" class="st0" d="M171.5,156.3"/>
		<path id="XMLID_298_" class="st0" d="M157.4,146.5"/>
		<path id="XMLID_297_" class="st0" d="M168.4,142.5"/>
		<polygon id="XMLID_296_" class="st0" points="160.1,126.6 160.1,177.9 186.2,152.3 		"/>
		<polygon id="XMLID_295_" class="st0" points="159.9,152.7 107.7,152.7 133.8,178.4 		"/>
		<line id="XMLID_294_" class="st0" x1="185.6" y1="152.7" x2="238.6" y2="152.7"/>
		<line id="XMLID_293_" class="st0" x1="159.6" y1="126.7" x2="238.6" y2="126.7"/>
		<line id="XMLID_292_" class="st0" x1="107.6" y1="152.7" x2="80.6" y2="152.7"/>
	</g>
	<g id="XMLID_282_">
		<path id="XMLID_290_" class="st0" d="M250.8,182.1"/>
		<path id="XMLID_289_" class="st0" d="M236.7,172.3"/>
		<path id="XMLID_288_" class="st0" d="M247.7,168.3"/>
		<polygon id="XMLID_287_" class="st0" points="239.1,152.4 239.1,203.7 265.2,178.1 		"/>
		<polygon id="XMLID_286_" class="st0" points="239.2,177.7 187,177.7 213.1,203.4 		"/>
		<line id="XMLID_285_" class="st0" x1="265.6" y1="178.7" x2="317.6" y2="178.7"/>
		<line id="XMLID_284_" class="st0" x1="239.6" y1="152.7" x2="317.6" y2="152.7"/>
		<line id="XMLID_283_" class="st0" x1="186.6" y1="177.7" x2="159.6" y2="177.7"/>
	</g>
	<g id="XMLID_273_">
		<path id="XMLID_281_" class="st0" d="M409,156.6"/>
		<path id="XMLID_280_" class="st0" d="M394.9,146.9"/>
		<path id="XMLID_279_" class="st0" d="M405.9,142.8"/>
		<polygon id="XMLID_278_" class="st0" points="397.1,126.9 397.1,178.2 423.2,152.6 		"/>
		<polygon id="XMLID_277_" class="st0" points="397.4,152.7 345.2,152.7 371.3,178.4 		"/>
		<line id="XMLID_276_" class="st0" x1="423.6" y1="152.7" x2="476.6" y2="152.7"/>
		<line id="XMLID_275_" class="st0" x1="397.6" y1="126.7" x2="476.6" y2="126.7"/>
		<line id="XMLID_274_" class="st0" x1="345.6" y1="152.7" x2="317.6" y2="152.7"/>
	</g>
	<g id="XMLID_264_">
		<path id="XMLID_272_" class="st0" d="M488.3,182.4"/>
		<path id="XMLID_271_" class="st0" d="M474.2,172.7"/>
		<path id="XMLID_270_" class="st0" d="M485.2,168.6"/>
		<polygon id="XMLID_269_" class="st0" points="477.1,152.7 477.1,204 503.2,178.4 		"/>
		<polygon id="XMLID_268_" class="st0" points="476.7,178.7 424.5,178.7 450.6,204.4 		"/>
		<line id="XMLID_267_" class="st0" x1="502.6" y1="178.7" x2="555.6" y2="178.7"/>
		<line id="XMLID_266_" class="st0" x1="476.6" y1="152.7" x2="555.6" y2="152.7"/>
		<line id="XMLID_265_" class="st0" x1="424.6" y1="178.7" x2="397.6" y2="178.7"/>
	</g>
	<g id="XMLID_255_">
		<path id="XMLID_263_" class="st0" d="M330.1,207.9"/>
		<path id="XMLID_262_" class="st0" d="M316,198.1"/>
		<path id="XMLID_261_" class="st0" d="M327,194.1"/>
		<polygon id="XMLID_260_" class="st0" points="318.1,178.2 318.1,229.5 344.2,203.9 		"/>
		<polygon id="XMLID_259_" class="st0" points="318.5,203.7 266.2,203.7 292.3,229.4 		"/>
		<line id="XMLID_258_" class="st0" x1="344.6" y1="203.7" x2="397.6" y2="203.7"/>
		<line id="XMLID_257_" class="st0" x1="318.6" y1="178.7" x2="397.6" y2="178.7"/>
		<line id="XMLID_256_" class="st0" x1="266.6" y1="203.7" x2="239.6" y2="203.7"/>
	</g>
	<g id="XMLID_246_">
		<path id="XMLID_254_" class="st0" d="M409.3,233.7"/>
		<path id="XMLID_253_" class="st0" d="M395.2,223.9"/>
		<path id="XMLID_252_" class="st0" d="M406.2,219.9"/>
		<polygon id="XMLID_251_" class="st0" points="398.1,204 398.1,255.3 424.2,229.7 		"/>
		<polygon id="XMLID_250_" class="st0" points="397.7,229.7 345.5,229.7 371.6,255.4 		"/>
		<line id="XMLID_249_" class="st0" x1="423.6" y1="229.7" x2="476.6" y2="229.7"/>
		<line id="XMLID_248_" class="st0" x1="397.6" y1="203.7" x2="476.6" y2="203.7"/>
		<line id="XMLID_247_" class="st0" x1="345.6" y1="229.7" x2="318.6" y2="229.7"/>
	</g>
	<g id="XMLID_237_">
		<path id="XMLID_245_" class="st0" d="M567.5,208"/>
		<path id="XMLID_244_" class="st0" d="M553.4,198.3"/>
		<path id="XMLID_243_" class="st0" d="M564.4,194.2"/>
		<polygon id="XMLID_242_" class="st0" points="556.1,178.4 556.1,229.7 582.2,204 		"/>
		<polygon id="XMLID_241_" class="st0" points="555.9,203.7 503.6,203.7 529.8,229.4 		"/>
		<line id="XMLID_240_" class="st0" x1="581.6" y1="204.7" x2="634.6" y2="204.7"/>
		<line id="XMLID_239_" class="st0" x1="555.6" y1="178.7" x2="634.6" y2="178.7"/>
		<line id="XMLID_238_" class="st0" x1="503.6" y1="203.7" x2="476.6" y2="203.7"/>
	</g>
	<g id="XMLID_228_">
		<path id="XMLID_236_" class="st0" d="M646.7,233.8"/>
		<path id="XMLID_235_" class="st0" d="M632.6,224.1"/>
		<path id="XMLID_234_" class="st0" d="M643.7,220"/>
		<polygon id="XMLID_233_" class="st0" points="635.1,204.1 635.1,255.4 661.2,229.8 		"/>
		<polygon id="XMLID_232_" class="st0" points="635.1,229.7 582.9,229.7 609,255.4 		"/>
		<line id="XMLID_231_" class="st0" x1="661.6" y1="229.7" x2="713.6" y2="229.7"/>
		<line id="XMLID_230_" class="st0" x1="634.6" y1="204.7" x2="713.6" y2="204.7"/>
		<line id="XMLID_229_" class="st0" x1="582.6" y1="229.7" x2="555.6" y2="229.7"/>
	</g>
	<g id="XMLID_219_">
		<path id="XMLID_227_" class="st0" d="M488.5,259.3"/>
		<path id="XMLID_226_" class="st0" d="M474.4,249.5"/>
		<path id="XMLID_225_" class="st0" d="M485.4,245.5"/>
		<polygon id="XMLID_224_" class="st0" points="477.1,229.6 477.1,280.9 503.2,255.3 		"/>
		<polygon id="XMLID_223_" class="st0" points="476.9,255.7 424.7,255.7 450.8,281.4 		"/>
		<line id="XMLID_222_" class="st0" x1="502.6" y1="255.7" x2="555.6" y2="255.7"/>
		<line id="XMLID_221_" class="st0" x1="476.6" y1="229.7" x2="555.6" y2="229.7"/>
		<line id="XMLID_220_" class="st0" x1="424.6" y1="255.7" x2="397.6" y2="255.7"/>
	</g>
	<g id="XMLID_210_">
		<path id="XMLID_218_" class="st0" d="M567.8,285.1"/>
		<path id="XMLID_217_" class="st0" d="M553.7,275.3"/>
		<path id="XMLID_216_" class="st0" d="M564.7,271.3"/>
		<polygon id="XMLID_215_" class="st0" points="556.1,255.4 556.1,306.7 582.2,281.1 		"/>
		<polygon id="XMLID_214_" class="st0" points="556.2,280.7 504,280.7 530.1,306.4 		"/>
		<line id="XMLID_213_" class="st0" x1="582.6" y1="281.7" x2="634.6" y2="281.7"/>
		<line id="XMLID_212_" class="st0" x1="556.6" y1="255.7" x2="634.6" y2="255.7"/>
		<line id="XMLID_211_" class="st0" x1="503.6" y1="280.7" x2="476.6" y2="280.7"/>
	</g>
	<g id="XMLID_201_">
		<path id="XMLID_209_" class="st0" d="M726,259.6"/>
		<path id="XMLID_208_" class="st0" d="M711.9,249.9"/>
		<path id="XMLID_207_" class="st0" d="M722.9,245.8"/>
		<polygon id="XMLID_206_" class="st0" points="714.1,229.9 714.1,281.2 740.2,255.6 		"/>
		<polygon id="XMLID_205_" class="st0" points="714.4,255.7 662.2,255.7 688.3,281.4 		"/>
		<line id="XMLID_204_" class="st0" x1="740.6" y1="255.7" x2="793.6" y2="255.7"/>
		<line id="XMLID_203_" class="st0" x1="714.6" y1="229.7" x2="793.6" y2="229.7"/>
		<line id="XMLID_202_" class="st0" x1="662.6" y1="255.7" x2="634.6" y2="255.7"/>
	</g>
	<g id="XMLID_192_">
		<path id="XMLID_200_" class="st0" d="M805.3,285.4"/>
		<path id="XMLID_199_" class="st0" d="M791.2,275.7"/>
		<path id="XMLID_198_" class="st0" d="M802.2,271.6"/>
		<polygon id="XMLID_197_" class="st0" points="794.1,255.7 794.1,307 820.2,281.4 		"/>
		<polygon id="XMLID_196_" class="st0" points="793.7,281.7 741.5,281.7 767.6,307.4 		"/>
		<line id="XMLID_195_" class="st0" x1="819.6" y1="281.7" x2="872.6" y2="281.7"/>
		<line id="XMLID_194_" class="st0" x1="793.6" y1="255.7" x2="872.6" y2="255.7"/>
		<line id="XMLID_193_" class="st0" x1="741.6" y1="281.7" x2="714.6" y2="281.7"/>
	</g>
	<g id="XMLID_183_">
		<path id="XMLID_191_" class="st0" d="M647.1,310.9"/>
		<path id="XMLID_190_" class="st0" d="M633,301.1"/>
		<path id="XMLID_189_" class="st0" d="M644,297.1"/>
		<polygon id="XMLID_188_" class="st0" points="635.1,281.2 635.1,332.5 661.2,306.9 		"/>
		<polygon id="XMLID_187_" class="st0" points="635.5,306.7 583.2,306.7 609.3,332.4 		"/>
		<line id="XMLID_186_" class="st0" x1="661.6" y1="306.7" x2="714.6" y2="306.7"/>
		<line id="XMLID_185_" class="st0" x1="635.6" y1="281.7" x2="714.6" y2="281.7"/>
		<line id="XMLID_184_" class="st0" x1="583.6" y1="306.7" x2="556.6" y2="306.7"/>
	</g>
	<g id="XMLID_174_">
		<path id="XMLID_182_" class="st0" d="M726.3,336.7"/>
		<path id="XMLID_181_" class="st0" d="M712.2,326.9"/>
		<path id="XMLID_180_" class="st0" d="M723.2,322.9"/>
		<polygon id="XMLID_179_" class="st0" points="715.1,307 715.1,358.3 741.2,332.7 		"/>
		<polygon id="XMLID_178_" class="st0" points="714.7,332.7 662.5,332.7 688.6,358.4 		"/>
		<line id="XMLID_177_" class="st0" x1="740.6" y1="332.7" x2="793.6" y2="332.7"/>
		<line id="XMLID_176_" class="st0" x1="714.6" y1="306.7" x2="793.6" y2="306.7"/>
		<line id="XMLID_175_" class="st0" x1="662.6" y1="332.7" x2="635.6" y2="332.7"/>
	</g>
</g>
<g id="XMLID_466_">
	<g id="XMLID_602_">
		<path id="XMLID_610_" class="st0" d="M250.5,259"/>
		<path id="XMLID_609_" class="st0" d="M236.4,249.3"/>
		<path id="XMLID_608_" class="st0" d="M247.4,245.2"/>
		<polygon id="XMLID_607_" class="st0" points="239.1,229.4 239.1,280.7 265.2,255 		"/>
		<polygon id="XMLID_606_" class="st0" points="238.9,254.7 186.6,254.7 212.8,280.4 		"/>
		<line id="XMLID_605_" class="st0" x1="264.6" y1="255.7" x2="317.6" y2="255.7"/>
		<line id="XMLID_604_" class="st0" x1="238.6" y1="229.7" x2="317.6" y2="229.7"/>
		<line id="XMLID_603_" class="st0" x1="186.6" y1="254.7" x2="159.6" y2="254.7"/>
	</g>
	<g id="XMLID_593_">
		<path id="XMLID_601_" class="st0" d="M329.7,284.8"/>
		<path id="XMLID_600_" class="st0" d="M315.6,275.1"/>
		<path id="XMLID_599_" class="st0" d="M326.7,271"/>
		<polygon id="XMLID_598_" class="st0" points="318.1,255.1 318.1,306.4 344.2,280.8 		"/>
		<polygon id="XMLID_597_" class="st0" points="318.1,280.7 265.9,280.7 292,306.4 		"/>
		<line id="XMLID_596_" class="st0" x1="344.6" y1="280.7" x2="396.6" y2="280.7"/>
		<line id="XMLID_595_" class="st0" x1="317.6" y1="255.7" x2="396.6" y2="255.7"/>
		<line id="XMLID_594_" class="st0" x1="265.6" y1="280.7" x2="238.6" y2="280.7"/>
	</g>
	<g id="XMLID_584_">
		<path id="XMLID_592_" class="st0" d="M171.5,310.3"/>
		<path id="XMLID_591_" class="st0" d="M157.4,300.5"/>
		<path id="XMLID_590_" class="st0" d="M168.4,296.5"/>
		<polygon id="XMLID_589_" class="st0" points="160.1,280.6 160.1,331.9 186.2,306.3 		"/>
		<polygon id="XMLID_588_" class="st0" points="159.9,306.7 107.7,306.7 133.8,332.4 		"/>
		<line id="XMLID_587_" class="st0" x1="185.6" y1="306.7" x2="238.6" y2="306.7"/>
		<line id="XMLID_586_" class="st0" x1="159.6" y1="280.7" x2="238.6" y2="280.7"/>
		<line id="XMLID_585_" class="st0" x1="107.6" y1="306.7" x2="80.6" y2="306.7"/>
	</g>
	<g id="XMLID_575_">
		<path id="XMLID_583_" class="st0" d="M250.8,336.1"/>
		<path id="XMLID_582_" class="st0" d="M236.7,326.3"/>
		<path id="XMLID_581_" class="st0" d="M247.7,322.3"/>
		<polygon id="XMLID_580_" class="st0" points="239.1,306.4 239.1,357.7 265.2,332.1 		"/>
		<polygon id="XMLID_579_" class="st0" points="239.2,331.7 187,331.7 213.1,357.4 		"/>
		<line id="XMLID_578_" class="st0" x1="265.6" y1="332.7" x2="317.6" y2="332.7"/>
		<line id="XMLID_577_" class="st0" x1="239.6" y1="306.7" x2="317.6" y2="306.7"/>
		<line id="XMLID_576_" class="st0" x1="186.6" y1="331.7" x2="159.6" y2="331.7"/>
	</g>
	<g id="XMLID_566_">
		<path id="XMLID_574_" class="st0" d="M409,310.6"/>
		<path id="XMLID_573_" class="st0" d="M394.9,300.9"/>
		<path id="XMLID_572_" class="st0" d="M405.9,296.8"/>
		<polygon id="XMLID_571_" class="st0" points="397.1,280.9 397.1,332.2 423.2,306.6 		"/>
		<polygon id="XMLID_570_" class="st0" points="397.4,306.7 345.2,306.7 371.3,332.4 		"/>
		<line id="XMLID_569_" class="st0" x1="423.6" y1="306.7" x2="476.6" y2="306.7"/>
		<line id="XMLID_568_" class="st0" x1="397.6" y1="280.7" x2="476.6" y2="280.7"/>
		<line id="XMLID_567_" class="st0" x1="345.6" y1="306.7" x2="317.6" y2="306.7"/>
	</g>
	<g id="XMLID_557_">
		<path id="XMLID_565_" class="st0" d="M488.3,336.4"/>
		<path id="XMLID_564_" class="st0" d="M474.2,326.7"/>
		<path id="XMLID_563_" class="st0" d="M485.2,322.6"/>
		<polygon id="XMLID_562_" class="st0" points="477.1,306.7 477.1,358 503.2,332.4 		"/>
		<polygon id="XMLID_561_" class="st0" points="476.7,332.7 424.5,332.7 450.6,358.4 		"/>
		<line id="XMLID_560_" class="st0" x1="502.6" y1="332.7" x2="555.6" y2="332.7"/>
		<line id="XMLID_559_" class="st0" x1="476.6" y1="306.7" x2="555.6" y2="306.7"/>
		<line id="XMLID_558_" class="st0" x1="424.6" y1="332.7" x2="397.6" y2="332.7"/>
	</g>
	<g id="XMLID_548_">
		<path id="XMLID_556_" class="st0" d="M330.1,361.9"/>
		<path id="XMLID_555_" class="st0" d="M316,352.1"/>
		<path id="XMLID_554_" class="st0" d="M327,348.1"/>
		<polygon id="XMLID_553_" class="st0" points="318.1,332.2 318.1,383.5 344.2,357.9 		"/>
		<polygon id="XMLID_552_" class="st0" points="318.5,357.7 266.2,357.7 292.3,383.4 		"/>
		<line id="XMLID_551_" class="st0" x1="344.6" y1="357.7" x2="397.6" y2="357.7"/>
		<line id="XMLID_550_" class="st0" x1="318.6" y1="332.7" x2="397.6" y2="332.7"/>
		<line id="XMLID_549_" class="st0" x1="266.6" y1="357.7" x2="239.6" y2="357.7"/>
	</g>
	<g id="XMLID_539_">
		<path id="XMLID_547_" class="st0" d="M409.3,387.7"/>
		<path id="XMLID_546_" class="st0" d="M395.2,377.9"/>
		<path id="XMLID_545_" class="st0" d="M406.2,373.9"/>
		<polygon id="XMLID_544_" class="st0" points="398.1,358 398.1,409.3 424.2,383.7 		"/>
		<polygon id="XMLID_543_" class="st0" points="397.7,383.7 345.5,383.7 371.6,409.4 		"/>
		<line id="XMLID_542_" class="st0" x1="423.6" y1="383.7" x2="476.6" y2="383.7"/>
		<line id="XMLID_541_" class="st0" x1="397.6" y1="357.7" x2="476.6" y2="357.7"/>
		<line id="XMLID_540_" class="st0" x1="345.6" y1="383.7" x2="318.6" y2="383.7"/>
	</g>
	<g id="XMLID_530_">
		<path id="XMLID_538_" class="st0" d="M567.5,362"/>
		<path id="XMLID_537_" class="st0" d="M553.4,352.3"/>
		<path id="XMLID_536_" class="st0" d="M564.4,348.2"/>
		<polygon id="XMLID_535_" class="st0" points="556.1,332.4 556.1,383.7 582.2,358 		"/>
		<polygon id="XMLID_534_" class="st0" points="555.9,357.7 503.6,357.7 529.8,383.4 		"/>
		<line id="XMLID_533_" class="st0" x1="581.6" y1="358.7" x2="634.6" y2="358.7"/>
		<line id="XMLID_532_" class="st0" x1="555.6" y1="332.7" x2="634.6" y2="332.7"/>
		<line id="XMLID_531_" class="st0" x1="503.6" y1="357.7" x2="476.6" y2="357.7"/>
	</g>
	<g id="XMLID_521_">
		<path id="XMLID_529_" class="st0" d="M646.7,387.8"/>
		<path id="XMLID_528_" class="st0" d="M632.6,378.1"/>
		<path id="XMLID_527_" class="st0" d="M643.7,374"/>
		<polygon id="XMLID_526_" class="st0" points="635.1,358.1 635.1,409.4 661.2,383.8 		"/>
		<polygon id="XMLID_525_" class="st0" points="635.1,383.7 582.9,383.7 609,409.4 		"/>
		<line id="XMLID_524_" class="st0" x1="661.6" y1="383.7" x2="713.6" y2="383.7"/>
		<line id="XMLID_523_" class="st0" x1="634.6" y1="358.7" x2="713.6" y2="358.7"/>
		<line id="XMLID_522_" class="st0" x1="582.6" y1="383.7" x2="555.6" y2="383.7"/>
	</g>
	<g id="XMLID_512_">
		<path id="XMLID_520_" class="st0" d="M488.5,413.3"/>
		<path id="XMLID_519_" class="st0" d="M474.4,403.5"/>
		<path id="XMLID_518_" class="st0" d="M485.4,399.5"/>
		<polygon id="XMLID_517_" class="st0" points="477.1,383.6 477.1,434.9 503.2,409.3 		"/>
		<polygon id="XMLID_516_" class="st0" points="476.9,409.7 424.7,409.7 450.8,435.4 		"/>
		<line id="XMLID_515_" class="st0" x1="502.6" y1="409.7" x2="555.6" y2="409.7"/>
		<line id="XMLID_514_" class="st0" x1="476.6" y1="383.7" x2="555.6" y2="383.7"/>
		<line id="XMLID_513_" class="st0" x1="424.6" y1="409.7" x2="397.6" y2="409.7"/>
	</g>
	<g id="XMLID_503_">
		<path id="XMLID_511_" class="st0" d="M567.8,439.1"/>
		<path id="XMLID_510_" class="st0" d="M553.7,429.3"/>
		<path id="XMLID_509_" class="st0" d="M564.7,425.3"/>
		<polygon id="XMLID_508_" class="st0" points="556.1,409.4 556.1,460.7 582.2,435.1 		"/>
		<polygon id="XMLID_507_" class="st0" points="556.2,434.7 504,434.7 530.1,460.4 		"/>
		<line id="XMLID_506_" class="st0" x1="582.6" y1="435.7" x2="634.6" y2="435.7"/>
		<line id="XMLID_505_" class="st0" x1="556.6" y1="409.7" x2="634.6" y2="409.7"/>
		<line id="XMLID_504_" class="st0" x1="503.6" y1="434.7" x2="476.6" y2="434.7"/>
	</g>
	<g id="XMLID_494_">
		<path id="XMLID_502_" class="st0" d="M726,413.6"/>
		<path id="XMLID_501_" class="st0" d="M711.9,403.9"/>
		<path id="XMLID_500_" class="st0" d="M722.9,399.8"/>
		<polygon id="XMLID_499_" class="st0" points="714.1,383.9 714.1,435.2 740.2,409.6 		"/>
		<polygon id="XMLID_498_" class="st0" points="714.4,409.7 662.2,409.7 688.3,435.4 		"/>
		<line id="XMLID_497_" class="st0" x1="740.6" y1="409.7" x2="793.6" y2="409.7"/>
		<line id="XMLID_496_" class="st0" x1="714.6" y1="383.7" x2="793.6" y2="383.7"/>
		<line id="XMLID_495_" class="st0" x1="662.6" y1="409.7" x2="634.6" y2="409.7"/>
	</g>
	<g id="XMLID_485_">
		<path id="XMLID_493_" class="st0" d="M805.3,439.4"/>
		<path id="XMLID_492_" class="st0" d="M791.2,429.7"/>
		<path id="XMLID_491_" class="st0" d="M802.2,425.6"/>
		<polygon id="XMLID_490_" class="st0" points="794.1,409.7 794.1,461 820.2,435.4 		"/>
		<polygon id="XMLID_489_" class="st0" points="793.7,435.7 741.5,435.7 767.6,461.4 		"/>
		<line id="XMLID_488_" class="st0" x1="819.6" y1="435.7" x2="872.6" y2="435.7"/>
		<line id="XMLID_487_" class="st0" x1="793.6" y1="409.7" x2="872.6" y2="409.7"/>
		<line id="XMLID_486_" class="st0" x1="741.6" y1="435.7" x2="714.6" y2="435.7"/>
	</g>
	<g id="XMLID_476_">
		<path id="XMLID_484_" class="st0" d="M647.1,464.9"/>
		<path id="XMLID_483_" class="st0" d="M633,455.1"/>
		<path id="XMLID_482_" class="st0" d="M644,451.1"/>
		<polygon id="XMLID_481_" class="st0" points="635.1,435.2 635.1,486.5 661.2,460.9 		"/>
		<polygon id="XMLID_480_" class="st0" points="635.5,460.7 583.2,460.7 609.3,486.4 		"/>
		<line id="XMLID_479_" class="st0" x1="661.6" y1="460.7" x2="714.6" y2="460.7"/>
		<line id="XMLID_478_" class="st0" x1="635.6" y1="435.7" x2="714.6" y2="435.7"/>
		<line id="XMLID_477_" class="st0" x1="583.6" y1="460.7" x2="556.6" y2="460.7"/>
	</g>
	<g id="XMLID_467_">
		<path id="XMLID_475_" class="st0" d="M726.3,490.7"/>
		<path id="XMLID_474_" class="st0" d="M712.2,480.9"/>
		<path id="XMLID_473_" class="st0" d="M723.2,476.9"/>
		<polygon id="XMLID_472_" class="st0" points="715.1,461 715.1,512.3 741.2,486.7 		"/>
		<polygon id="XMLID_471_" class="st0" points="714.7,486.7 662.5,486.7 688.6,512.4 		"/>
		<line id="XMLID_470_" class="st0" x1="740.6" y1="486.7" x2="793.6" y2="486.7"/>
		<line id="XMLID_469_" class="st0" x1="714.6" y1="460.7" x2="793.6" y2="460.7"/>
		<line id="XMLID_468_" class="st0" x1="662.6" y1="486.7" x2="635.6" y2="486.7"/>
	</g>
</g>
<g id="XMLID_457_">
	<path id="XMLID_465_" class="st0" d="M249.5,413"/>
	<path id="XMLID_464_" class="st0" d="M235.4,403.3"/>
	<path id="XMLID_463_" class="st0" d="M246.4,399.2"/>
	<polygon id="XMLID_462_" class="st0" points="238.1,383.4 238.1,434.7 264.2,409 	"/>
	<polygon id="XMLID_461_" class="st0" points="237.9,408.7 185.6,408.7 211.8,434.4 	"/>
	<line id="XMLID_460_" class="st0" x1="263.6" y1="409.7" x2="316.6" y2="409.7"/>
	<line id="XMLID_459_" class="st0" x1="237.6" y1="383.7" x2="316.6" y2="383.7"/>
	<line id="XMLID_458_" class="st0" x1="185.6" y1="408.7" x2="158.6" y2="408.7"/>
</g>
<g id="XMLID_448_">
	<path id="XMLID_456_" class="st0" d="M328.7,438.8"/>
	<path id="XMLID_455_" class="st0" d="M314.6,429.1"/>
	<path id="XMLID_454_" class="st0" d="M325.7,425"/>
	<polygon id="XMLID_453_" class="st0" points="317.1,409.1 317.1,460.4 343.2,434.8 	"/>
	<polygon id="XMLID_452_" class="st0" points="317.1,434.7 264.9,434.7 291,460.4 	"/>
	<line id="XMLID_451_" class="st0" x1="343.6" y1="434.7" x2="395.6" y2="434.7"/>
	<line id="XMLID_450_" class="st0" x1="316.6" y1="409.7" x2="395.6" y2="409.7"/>
	<line id="XMLID_449_" class="st0" x1="264.6" y1="434.7" x2="237.6" y2="434.7"/>
</g>
<g id="XMLID_438_">
	<path id="XMLID_447_" class="st0" d="M170.5,464.3"/>
	<path id="XMLID_446_" class="st0" d="M156.4,454.5"/>
	<path id="XMLID_445_" class="st0" d="M167.4,450.5"/>
	<polygon id="XMLID_444_" class="st0" points="159.1,434.6 159.1,485.9 185.2,460.3 	"/>
	<polygon id="XMLID_443_" class="st0" points="158.9,460.7 106.7,460.7 132.8,486.4 	"/>
	<line id="XMLID_442_" class="st0" x1="184.6" y1="460.7" x2="237.6" y2="460.7"/>
	<line id="XMLID_441_" class="st0" x1="158.6" y1="434.7" x2="237.6" y2="434.7"/>
	<line id="XMLID_439_" class="st0" x1="106.6" y1="460.7" x2="79.6" y2="460.7"/>
</g>
<g id="XMLID_429_">
	<path id="XMLID_437_" class="st0" d="M249.8,490.1"/>
	<path id="XMLID_436_" class="st0" d="M235.7,480.3"/>
	<path id="XMLID_435_" class="st0" d="M246.7,476.3"/>
	<polygon id="XMLID_434_" class="st0" points="238.1,460.4 238.1,511.7 264.2,486.1 	"/>
	<polygon id="XMLID_433_" class="st0" points="238.2,485.7 186,485.7 212.1,511.4 	"/>
	<line id="XMLID_432_" class="st0" x1="264.6" y1="486.7" x2="316.6" y2="486.7"/>
	<line id="XMLID_431_" class="st0" x1="238.6" y1="460.7" x2="316.6" y2="460.7"/>
	<line id="XMLID_430_" class="st0" x1="185.6" y1="485.7" x2="158.6" y2="485.7"/>
</g>
<g id="XMLID_418_">
	<path id="XMLID_428_" class="st0" d="M408,464.6"/>
	<path id="XMLID_427_" class="st0" d="M393.9,454.9"/>
	<path id="XMLID_426_" class="st0" d="M404.9,450.8"/>
	<polygon id="XMLID_424_" class="st0" points="396.1,434.9 396.1,486.2 422.2,460.6 	"/>
	<polygon id="XMLID_422_" class="st0" points="396.4,460.7 344.2,460.7 370.3,486.4 	"/>
	<line id="XMLID_421_" class="st0" x1="422.6" y1="460.7" x2="475.6" y2="460.7"/>
	<line id="XMLID_420_" class="st0" x1="396.6" y1="434.7" x2="475.6" y2="434.7"/>
	<line id="XMLID_419_" class="st0" x1="344.6" y1="460.7" x2="316.6" y2="460.7"/>
</g>
<g id="XMLID_409_">
	<path id="XMLID_417_" class="st0" d="M487.3,490.4"/>
	<path id="XMLID_416_" class="st0" d="M473.2,480.7"/>
	<path id="XMLID_415_" class="st0" d="M484.2,476.6"/>
	<polygon id="XMLID_414_" class="st0" points="476.1,460.7 476.1,512 502.2,486.4 	"/>
	<polygon id="XMLID_413_" class="st0" points="475.7,486.7 423.5,486.7 449.6,512.4 	"/>
	<line id="XMLID_412_" class="st0" x1="501.6" y1="486.7" x2="554.6" y2="486.7"/>
	<line id="XMLID_411_" class="st0" x1="475.6" y1="460.7" x2="554.6" y2="460.7"/>
	<line id="XMLID_410_" class="st0" x1="423.6" y1="486.7" x2="396.6" y2="486.7"/>
</g>
<g id="XMLID_400_">
	<path id="XMLID_408_" class="st0" d="M329.1,515.9"/>
	<path id="XMLID_407_" class="st0" d="M315,506.1"/>
	<path id="XMLID_406_" class="st0" d="M326,502.1"/>
	<polygon id="XMLID_405_" class="st0" points="317.1,486.2 317.1,537.5 343.2,511.9 	"/>
	<polygon id="XMLID_404_" class="st0" points="317.5,511.7 265.2,511.7 291.3,537.4 	"/>
	<line id="XMLID_403_" class="st0" x1="343.6" y1="511.7" x2="396.6" y2="511.7"/>
	<line id="XMLID_402_" class="st0" x1="317.6" y1="486.7" x2="396.6" y2="486.7"/>
	<line id="XMLID_401_" class="st0" x1="265.6" y1="511.7" x2="238.6" y2="511.7"/>
</g>
<g id="XMLID_382_">
	<path id="XMLID_390_" class="st0" d="M566.5,516"/>
	<path id="XMLID_389_" class="st0" d="M552.4,506.3"/>
	<path id="XMLID_388_" class="st0" d="M563.4,502.2"/>
	<polygon id="XMLID_387_" class="st0" points="555.1,486.4 555.1,537.7 581.2,512 	"/>
	<polygon id="XMLID_386_" class="st0" points="554.9,511.7 502.6,511.7 528.8,537.4 	"/>
	<line id="XMLID_385_" class="st0" x1="580.6" y1="512.7" x2="633.6" y2="512.7"/>
	<line id="XMLID_384_" class="st0" x1="554.6" y1="486.7" x2="633.6" y2="486.7"/>
	<line id="XMLID_383_" class="st0" x1="502.6" y1="511.7" x2="475.6" y2="511.7"/>
</g>
<g id="XMLID_938_">
	<path id="XMLID_946_" class="st0" d="M567.8-22.9"/>
	<path id="XMLID_945_" class="st0" d="M553.7-32.7"/>
	<path id="XMLID_944_" class="st0" d="M564.7-36.7"/>
	<polygon id="XMLID_943_" class="st0" points="556.1,-52.6 556.1,-1.3 582.2,-26.9 	"/>
	<polygon id="XMLID_942_" class="st0" points="556.2,-27.3 504,-27.3 530.1,-1.6 	"/>
	<line id="XMLID_941_" class="st0" x1="582.6" y1="-26.3" x2="634.6" y2="-26.3"/>
	<line id="XMLID_940_" class="st0" x1="556.6" y1="-52.3" x2="634.6" y2="-52.3"/>
	<line id="XMLID_939_" class="st0" x1="503.6" y1="-27.3" x2="476.6" y2="-27.3"/>
</g>
<g id="XMLID_920_">
	<path id="XMLID_928_" class="st0" d="M805.3-22.6"/>
	<path id="XMLID_927_" class="st0" d="M791.2-32.3"/>
	<path id="XMLID_926_" class="st0" d="M802.2-36.4"/>
	<polygon id="XMLID_925_" class="st0" points="794.1,-52.3 794.1,-1 820.2,-26.6 	"/>
	<polygon id="XMLID_924_" class="st0" points="793.7,-26.3 741.5,-26.3 767.6,-0.6 	"/>
	<line id="XMLID_923_" class="st0" x1="819.6" y1="-26.3" x2="872.6" y2="-26.3"/>
	<line id="XMLID_922_" class="st0" x1="793.6" y1="-52.3" x2="872.6" y2="-52.3"/>
	<line id="XMLID_921_" class="st0" x1="741.6" y1="-26.3" x2="714.6" y2="-26.3"/>
</g>
<g id="XMLID_911_">
	<path id="XMLID_919_" class="st0" d="M647.1,2.9"/>
	<path id="XMLID_918_" class="st0" d="M633-6.9"/>
	<path id="XMLID_917_" class="st0" d="M644-10.9"/>
	<polygon id="XMLID_916_" class="st0" points="635.1,-26.8 635.1,24.5 661.2,-1.1 	"/>
	<polygon id="XMLID_915_" class="st0" points="635.5,-1.3 583.2,-1.3 609.3,24.4 	"/>
	<line id="XMLID_914_" class="st0" x1="661.6" y1="-1.3" x2="714.6" y2="-1.3"/>
	<line id="XMLID_913_" class="st0" x1="635.6" y1="-26.3" x2="714.6" y2="-26.3"/>
	<line id="XMLID_912_" class="st0" x1="583.6" y1="-1.3" x2="556.6" y2="-1.3"/>
</g>
<g id="XMLID_902_">
	<path id="XMLID_910_" class="st0" d="M726.3,28.7"/>
	<path id="XMLID_909_" class="st0" d="M712.2,18.9"/>
	<path id="XMLID_908_" class="st0" d="M723.2,14.9"/>
	<polygon id="XMLID_907_" class="st0" points="715.1,-1 715.1,50.3 741.2,24.7 	"/>
	<polygon id="XMLID_906_" class="st0" points="714.7,24.7 662.5,24.7 688.6,50.4 	"/>
	<line id="XMLID_905_" class="st0" x1="740.6" y1="24.7" x2="793.6" y2="24.7"/>
	<line id="XMLID_904_" class="st0" x1="714.6" y1="-1.3" x2="793.6" y2="-1.3"/>
	<line id="XMLID_903_" class="st0" x1="662.6" y1="24.7" x2="635.6" y2="24.7"/>
</g>
<g id="XMLID_1047_">
	<path id="XMLID_1055_" class="st0" d="M92.3-23.3"/>
	<path id="XMLID_1054_" class="st0" d="M78.2-33.1"/>
	<path id="XMLID_1053_" class="st0" d="M89.2-37.1"/>
	<polygon id="XMLID_1052_" class="st0" points="81.1,-53 81.1,-1.7 107.2,-27.3 	"/>
	<polygon id="XMLID_1051_" class="st0" points="80.7,-27.3 28.5,-27.3 54.6,-1.6 	"/>
	<line id="XMLID_1050_" class="st0" x1="106.6" y1="-27.3" x2="159.6" y2="-27.3"/>
	<line id="XMLID_1049_" class="st0" x1="80.6" y1="-53.3" x2="159.6" y2="-53.3"/>
	<line id="XMLID_1048_" class="st0" x1="28.6" y1="-27.3" x2="1.6" y2="-27.3"/>
</g>
<g id="XMLID_1083_">
	<g id="XMLID_1129_">
		<path id="XMLID_1137_" class="st0" d="M12.7,27.8"/>
		<path id="XMLID_1136_" class="st0" d="M-1.4,18.1"/>
		<path id="XMLID_1135_" class="st0" d="M9.7,14"/>
		<polygon id="XMLID_1134_" class="st0" points="1.1,-1.9 1.1,49.4 27.2,23.8 		"/>
		<polygon id="XMLID_1133_" class="st0" points="1.1,23.7 -51.1,23.7 -25,49.4 		"/>
		<line id="XMLID_1132_" class="st0" x1="27.6" y1="23.7" x2="79.6" y2="23.7"/>
		<line id="XMLID_1131_" class="st0" x1="0.6" y1="-1.3" x2="79.6" y2="-1.3"/>
		<line id="XMLID_1130_" class="st0" x1="-51.4" y1="23.7" x2="-78.4" y2="23.7"/>
	</g>
	<g id="XMLID_1120_">
		<path id="XMLID_1128_" class="st0" d="M92,53.6"/>
		<path id="XMLID_1127_" class="st0" d="M77.9,43.9"/>
		<path id="XMLID_1126_" class="st0" d="M88.9,39.8"/>
		<polygon id="XMLID_1125_" class="st0" points="80.1,23.9 80.1,75.2 106.2,49.6 		"/>
		<polygon id="XMLID_1124_" class="st0" points="80.4,49.7 28.2,49.7 54.3,75.4 		"/>
		<line id="XMLID_1123_" class="st0" x1="106.6" y1="49.7" x2="159.6" y2="49.7"/>
		<line id="XMLID_1122_" class="st0" x1="80.6" y1="23.7" x2="159.6" y2="23.7"/>
		<line id="XMLID_1121_" class="st0" x1="28.6" y1="49.7" x2="0.6" y2="49.7"/>
	</g>
	<g id="XMLID_1111_">
		<path id="XMLID_1119_" class="st0" d="M171.3,79.4"/>
		<path id="XMLID_1118_" class="st0" d="M157.2,69.7"/>
		<path id="XMLID_1117_" class="st0" d="M168.2,65.6"/>
		<polygon id="XMLID_1116_" class="st0" points="160.1,49.7 160.1,101 186.2,75.4 		"/>
		<polygon id="XMLID_1115_" class="st0" points="159.7,75.7 107.5,75.7 133.6,101.4 		"/>
		<line id="XMLID_1114_" class="st0" x1="185.6" y1="75.7" x2="238.6" y2="75.7"/>
		<line id="XMLID_1113_" class="st0" x1="159.6" y1="49.7" x2="238.6" y2="49.7"/>
		<line id="XMLID_1112_" class="st0" x1="107.6" y1="75.7" x2="80.6" y2="75.7"/>
	</g>
	<g id="XMLID_1093_">
		<path id="XMLID_1110_" class="st0" d="M13.1,104.9"/>
		<path id="XMLID_1100_" class="st0" d="M-1,95.1"/>
		<path id="XMLID_1099_" class="st0" d="M10,91.1"/>
		<polygon id="XMLID_1098_" class="st0" points="1.1,75.2 1.1,126.5 27.2,100.9 		"/>
		<polygon id="XMLID_1097_" class="st0" points="1.5,100.7 -50.8,100.7 -24.7,126.4 		"/>
		<line id="XMLID_1096_" class="st0" x1="27.6" y1="100.7" x2="80.6" y2="100.7"/>
		<line id="XMLID_1095_" class="st0" x1="1.6" y1="75.7" x2="80.6" y2="75.7"/>
		<line id="XMLID_1094_" class="st0" x1="-50.4" y1="100.7" x2="-77.4" y2="100.7"/>
	</g>
	<g id="XMLID_1084_">
		<path id="XMLID_1092_" class="st0" d="M92.3,130.7"/>
		<path id="XMLID_1091_" class="st0" d="M78.2,120.9"/>
		<path id="XMLID_1090_" class="st0" d="M89.2,116.9"/>
		<polygon id="XMLID_1089_" class="st0" points="81.1,101 81.1,152.3 107.2,126.7 		"/>
		<polygon id="XMLID_1088_" class="st0" points="80.7,126.7 28.5,126.7 54.6,152.4 		"/>
		<line id="XMLID_1087_" class="st0" x1="106.6" y1="126.7" x2="159.6" y2="126.7"/>
		<line id="XMLID_1086_" class="st0" x1="80.6" y1="100.7" x2="159.6" y2="100.7"/>
		<line id="XMLID_1085_" class="st0" x1="28.6" y1="126.7" x2="1.6" y2="126.7"/>
	</g>
</g>
<g id="XMLID_1184_">
	<g id="XMLID_1221_">
		<path id="XMLID_1229_" class="st0" d="M12.7,181.8"/>
		<path id="XMLID_1228_" class="st0" d="M-1.4,172.1"/>
		<path id="XMLID_1227_" class="st0" d="M9.7,168"/>
		<polygon id="XMLID_1226_" class="st0" points="1.1,152.1 1.1,203.4 27.2,177.8 		"/>
		<polygon id="XMLID_1225_" class="st0" points="1.1,177.7 -51.1,177.7 -25,203.4 		"/>
		<line id="XMLID_1224_" class="st0" x1="27.6" y1="177.7" x2="79.6" y2="177.7"/>
		<line id="XMLID_1223_" class="st0" x1="0.6" y1="152.7" x2="79.6" y2="152.7"/>
		<line id="XMLID_1222_" class="st0" x1="-51.4" y1="177.7" x2="-78.4" y2="177.7"/>
	</g>
	<g id="XMLID_1212_">
		<path id="XMLID_1220_" class="st0" d="M92,207.6"/>
		<path id="XMLID_1219_" class="st0" d="M77.9,197.9"/>
		<path id="XMLID_1218_" class="st0" d="M88.9,193.8"/>
		<polygon id="XMLID_1217_" class="st0" points="80.1,177.9 80.1,229.2 106.2,203.6 		"/>
		<polygon id="XMLID_1216_" class="st0" points="80.4,203.7 28.2,203.7 54.3,229.4 		"/>
		<line id="XMLID_1215_" class="st0" x1="106.6" y1="203.7" x2="159.6" y2="203.7"/>
		<line id="XMLID_1214_" class="st0" x1="80.6" y1="177.7" x2="159.6" y2="177.7"/>
		<line id="XMLID_1213_" class="st0" x1="28.6" y1="203.7" x2="0.6" y2="203.7"/>
	</g>
	<g id="XMLID_1203_">
		<path id="XMLID_1211_" class="st0" d="M171.3,233.4"/>
		<path id="XMLID_1210_" class="st0" d="M157.2,223.7"/>
		<path id="XMLID_1209_" class="st0" d="M168.2,219.6"/>
		<polygon id="XMLID_1208_" class="st0" points="160.1,203.7 160.1,255 186.2,229.4 		"/>
		<polygon id="XMLID_1207_" class="st0" points="159.7,229.7 107.5,229.7 133.6,255.4 		"/>
		<line id="XMLID_1206_" class="st0" x1="185.6" y1="229.7" x2="238.6" y2="229.7"/>
		<line id="XMLID_1205_" class="st0" x1="159.6" y1="203.7" x2="238.6" y2="203.7"/>
		<line id="XMLID_1204_" class="st0" x1="107.6" y1="229.7" x2="80.6" y2="229.7"/>
	</g>
	<g id="XMLID_1194_">
		<path id="XMLID_1202_" class="st0" d="M13.1,258.9"/>
		<path id="XMLID_1201_" class="st0" d="M-1,249.1"/>
		<path id="XMLID_1200_" class="st0" d="M10,245.1"/>
		<polygon id="XMLID_1199_" class="st0" points="1.1,229.2 1.1,280.5 27.2,254.9 		"/>
		<polygon id="XMLID_1198_" class="st0" points="1.5,254.7 -50.8,254.7 -24.7,280.4 		"/>
		<line id="XMLID_1197_" class="st0" x1="27.6" y1="254.7" x2="80.6" y2="254.7"/>
		<line id="XMLID_1196_" class="st0" x1="1.6" y1="229.7" x2="80.6" y2="229.7"/>
		<line id="XMLID_1195_" class="st0" x1="-50.4" y1="254.7" x2="-77.4" y2="254.7"/>
	</g>
	<g id="XMLID_1185_">
		<path id="XMLID_1193_" class="st0" d="M92.3,284.7"/>
		<path id="XMLID_1192_" class="st0" d="M78.2,274.9"/>
		<path id="XMLID_1191_" class="st0" d="M89.2,270.9"/>
		<polygon id="XMLID_1190_" class="st0" points="81.1,255 81.1,306.3 107.2,280.7 		"/>
		<polygon id="XMLID_1189_" class="st0" points="80.7,280.7 28.5,280.7 54.6,306.4 		"/>
		<line id="XMLID_1188_" class="st0" x1="106.6" y1="280.7" x2="159.6" y2="280.7"/>
		<line id="XMLID_1187_" class="st0" x1="80.6" y1="254.7" x2="159.6" y2="254.7"/>
		<line id="XMLID_1186_" class="st0" x1="28.6" y1="280.7" x2="1.6" y2="280.7"/>
	</g>
</g>
<g id="XMLID_1138_">
	<g id="XMLID_1175_">
		<path id="XMLID_1183_" class="st0" d="M12.7,335.8"/>
		<path id="XMLID_1182_" class="st0" d="M-1.4,326.1"/>
		<path id="XMLID_1181_" class="st0" d="M9.7,322"/>
		<polygon id="XMLID_1180_" class="st0" points="1.1,306.1 1.1,357.4 27.2,331.8 		"/>
		<polygon id="XMLID_1179_" class="st0" points="1.1,331.7 -51.1,331.7 -25,357.4 		"/>
		<line id="XMLID_1178_" class="st0" x1="27.6" y1="331.7" x2="79.6" y2="331.7"/>
		<line id="XMLID_1177_" class="st0" x1="0.6" y1="306.7" x2="79.6" y2="306.7"/>
		<line id="XMLID_1176_" class="st0" x1="-51.4" y1="331.7" x2="-78.4" y2="331.7"/>
	</g>
	<g id="XMLID_1166_">
		<path id="XMLID_1174_" class="st0" d="M92,361.6"/>
		<path id="XMLID_1173_" class="st0" d="M77.9,351.9"/>
		<path id="XMLID_1172_" class="st0" d="M88.9,347.8"/>
		<polygon id="XMLID_1171_" class="st0" points="80.1,331.9 80.1,383.2 106.2,357.6 		"/>
		<polygon id="XMLID_1170_" class="st0" points="80.4,357.7 28.2,357.7 54.3,383.4 		"/>
		<line id="XMLID_1169_" class="st0" x1="106.6" y1="357.7" x2="159.6" y2="357.7"/>
		<line id="XMLID_1168_" class="st0" x1="80.6" y1="331.7" x2="159.6" y2="331.7"/>
		<line id="XMLID_1167_" class="st0" x1="28.6" y1="357.7" x2="0.6" y2="357.7"/>
	</g>
	<g id="XMLID_1157_">
		<path id="XMLID_1165_" class="st0" d="M171.3,387.4"/>
		<path id="XMLID_1164_" class="st0" d="M157.2,377.7"/>
		<path id="XMLID_1163_" class="st0" d="M168.2,373.6"/>
		<polygon id="XMLID_1162_" class="st0" points="160.1,357.7 160.1,409 186.2,383.4 		"/>
		<polygon id="XMLID_1161_" class="st0" points="159.7,383.7 107.5,383.7 133.6,409.4 		"/>
		<line id="XMLID_1160_" class="st0" x1="185.6" y1="383.7" x2="238.6" y2="383.7"/>
		<line id="XMLID_1159_" class="st0" x1="159.6" y1="357.7" x2="238.6" y2="357.7"/>
		<line id="XMLID_1158_" class="st0" x1="107.6" y1="383.7" x2="80.6" y2="383.7"/>
	</g>
	<g id="XMLID_1148_">
		<path id="XMLID_1156_" class="st0" d="M13.1,412.9"/>
		<path id="XMLID_1155_" class="st0" d="M-1,403.1"/>
		<path id="XMLID_1154_" class="st0" d="M10,399.1"/>
		<polygon id="XMLID_1153_" class="st0" points="1.1,383.2 1.1,434.5 27.2,408.9 		"/>
		<polygon id="XMLID_1152_" class="st0" points="1.5,408.7 -50.8,408.7 -24.7,434.4 		"/>
		<line id="XMLID_1151_" class="st0" x1="27.6" y1="408.7" x2="80.6" y2="408.7"/>
		<line id="XMLID_1150_" class="st0" x1="1.6" y1="383.7" x2="80.6" y2="383.7"/>
		<line id="XMLID_1149_" class="st0" x1="-50.4" y1="408.7" x2="-77.4" y2="408.7"/>
	</g>
	<g id="XMLID_1139_">
		<path id="XMLID_1147_" class="st0" d="M92.3,438.7"/>
		<path id="XMLID_1146_" class="st0" d="M78.2,428.9"/>
		<path id="XMLID_1145_" class="st0" d="M89.2,424.9"/>
		<polygon id="XMLID_1144_" class="st0" points="81.1,409 81.1,460.3 107.2,434.7 		"/>
		<polygon id="XMLID_1143_" class="st0" points="80.7,434.7 28.5,434.7 54.6,460.4 		"/>
		<line id="XMLID_1142_" class="st0" x1="106.6" y1="434.7" x2="159.6" y2="434.7"/>
		<line id="XMLID_1141_" class="st0" x1="80.6" y1="408.7" x2="159.6" y2="408.7"/>
		<line id="XMLID_1140_" class="st0" x1="28.6" y1="434.7" x2="1.6" y2="434.7"/>
	</g>
</g>
<g id="XMLID_1313_">
	<path id="XMLID_1321_" class="st0" d="M11.7,489.8"/>
	<path id="XMLID_1320_" class="st0" d="M-2.4,480.1"/>
	<path id="XMLID_1319_" class="st0" d="M8.7,476"/>
	<polygon id="XMLID_1318_" class="st0" points="0.1,460.1 0.1,511.4 26.2,485.8 	"/>
	<polygon id="XMLID_1317_" class="st0" points="0.1,485.7 -52.1,485.7 -26,511.4 	"/>
	<line id="XMLID_1316_" class="st0" x1="26.6" y1="485.7" x2="78.6" y2="485.7"/>
	<line id="XMLID_1315_" class="st0" x1="-0.4" y1="460.7" x2="78.6" y2="460.7"/>
	<line id="XMLID_1314_" class="st0" x1="-52.4" y1="485.7" x2="-79.4" y2="485.7"/>
</g>
<g id="XMLID_1304_">
	<path id="XMLID_1312_" class="st0" d="M91,515.6"/>
	<path id="XMLID_1311_" class="st0" d="M76.9,505.9"/>
	<path id="XMLID_1310_" class="st0" d="M87.9,501.8"/>
	<polygon id="XMLID_1309_" class="st0" points="79.1,485.9 79.1,537.2 105.2,511.6 	"/>
	<polygon id="XMLID_1308_" class="st0" points="79.4,511.7 27.2,511.7 53.3,537.4 	"/>
	<line id="XMLID_1307_" class="st0" x1="105.6" y1="511.7" x2="158.6" y2="511.7"/>
	<line id="XMLID_1306_" class="st0" x1="79.6" y1="485.7" x2="158.6" y2="485.7"/>
	<line id="XMLID_1305_" class="st0" x1="27.6" y1="511.7" x2="-0.4" y2="511.7"/>
</g>
<g id="XMLID_13_">
	<path id="XMLID_72_" class="st0" d="M805.8,54.5"/>
	<path id="XMLID_71_" class="st0" d="M791.7,44.8"/>
	<path id="XMLID_70_" class="st0" d="M802.7,40.7"/>
	<polygon id="XMLID_19_" class="st0" points="794.6,24.8 794.6,76.1 820.7,50.5 	"/>
	<polygon id="XMLID_18_" class="st0" points="794.2,50.8 742,50.8 768.1,76.5 	"/>
	<line id="XMLID_17_" class="st0" x1="820.1" y1="50.8" x2="873.1" y2="50.8"/>
	<line id="XMLID_16_" class="st0" x1="794.1" y1="24.8" x2="873.1" y2="24.8"/>
	<line id="XMLID_15_" class="st0" x1="742.1" y1="50.8" x2="715.1" y2="50.8"/>
</g>
<g id="XMLID_73_">
	<path id="XMLID_81_" class="st0" d="M805.2,207.2"/>
	<path id="XMLID_80_" class="st0" d="M791.1,197.5"/>
	<path id="XMLID_79_" class="st0" d="M802.1,193.4"/>
	<polygon id="XMLID_78_" class="st0" points="794,177.5 794,228.8 820.1,203.2 	"/>
	<polygon id="XMLID_77_" class="st0" points="793.6,203.5 741.4,203.5 767.5,229.2 	"/>
	<line id="XMLID_76_" class="st0" x1="819.5" y1="203.5" x2="872.5" y2="203.5"/>
	<line id="XMLID_75_" class="st0" x1="793.5" y1="177.5" x2="872.5" y2="177.5"/>
	<line id="XMLID_74_" class="st0" x1="741.5" y1="203.5" x2="714.5" y2="203.5"/>
</g>
<g id="XMLID_82_">
	<path id="XMLID_90_" class="st0" d="M806.3,362.5"/>
	<path id="XMLID_89_" class="st0" d="M792.2,352.9"/>
	<path id="XMLID_88_" class="st0" d="M803.2,348.8"/>
	<polygon id="XMLID_87_" class="st0" points="795.1,332.9 795.1,384.1 821.2,358.5 	"/>
	<polygon id="XMLID_86_" class="st0" points="794.7,358.9 742.5,358.9 768.6,384.5 	"/>
	<line id="XMLID_85_" class="st0" x1="820.6" y1="358.9" x2="873.6" y2="358.9"/>
	<line id="XMLID_84_" class="st0" x1="794.6" y1="332.9" x2="873.6" y2="332.9"/>
	<line id="XMLID_83_" class="st0" x1="742.6" y1="358.9" x2="715.6" y2="358.9"/>
</g>
</svg>
